solid OpenSCAD_Model
  facet normal 0 0 -1
    outer loop
      vertex -4.99013 0.062791 0
      vertex -4.96057 0.125333 0
      vertex -5 0 0
    endloop
  endfacet
  facet normal 0 0 -1
    outer loop
      vertex -5 0 0
      vertex -4.96057 0.125333 0
      vertex -4.91143 0.187381 0
    endloop
  endfacet
  facet normal 0 0 -1
    outer loop
      vertex -5 0 0
      vertex -4.91143 0.187381 0
      vertex -4.84291 0.24869 0
    endloop
  endfacet
  facet normal 0 0 -1
    outer loop
      vertex -5 0 0
      vertex -4.84291 0.24869 0
      vertex -4.75528 0.309017 0
    endloop
  endfacet
  facet normal 0 0 -1
    outer loop
      vertex -5 0 0
      vertex -4.75528 0.309017 0
      vertex -4.64888 0.368125 0
    endloop
  endfacet
  facet normal 0 0 -1
    outer loop
      vertex -5 0 0
      vertex -4.64888 0.368125 0
      vertex -4.52413 0.425779 0
    endloop
  endfacet
  facet normal 0 0 -1
    outer loop
      vertex -5 0 0
      vertex -4.52413 0.425779 0
      vertex -4.38153 0.481754 0
    endloop
  endfacet
  facet normal 0 0 -1
    outer loop
      vertex -5 0 0
      vertex -4.38153 0.481754 0
      vertex -4.22164 0.535827 0
    endloop
  endfacet
  facet normal 0 0 -1
    outer loop
      vertex -5 0 0
      vertex -4.22164 0.535827 0
      vertex -4.04508 0.587785 0
    endloop
  endfacet
  facet normal 0 0 -1
    outer loop
      vertex -5 0 0
      vertex -4.04508 0.587785 0
      vertex -3.85256 0.637424 0
    endloop
  endfacet
  facet normal 0 0 -1
    outer loop
      vertex -5 0 0
      vertex -3.85256 0.637424 0
      vertex -3.64484 0.684547 0
    endloop
  endfacet
  facet normal 0 0 -1
    outer loop
      vertex -5 0 0
      vertex -3.64484 0.684547 0
      vertex -3.42273 0.728969 0
    endloop
  endfacet
  facet normal 0 0 -1
    outer loop
      vertex -5 0 0
      vertex -3.42273 0.728969 0
      vertex -3.18712 0.770513 0
    endloop
  endfacet
  facet normal 0 0 -1
    outer loop
      vertex -5 0 0
      vertex -3.18712 0.770513 0
      vertex -2.93892 0.809017 0
    endloop
  endfacet
  facet normal 0 0 -1
    outer loop
      vertex -5 0 0
      vertex -2.93892 0.809017 0
      vertex -2.67913 0.844328 0
    endloop
  endfacet
  facet normal 0 0 -1
    outer loop
      vertex -5 0 0
      vertex -2.67913 0.844328 0
      vertex -2.40877 0.876307 0
    endloop
  endfacet
  facet normal 0 0 -1
    outer loop
      vertex -5 0 0
      vertex -2.40877 0.876307 0
      vertex -2.12889 0.904827 0
    endloop
  endfacet
  facet normal 0 0 -1
    outer loop
      vertex -5 0 0
      vertex -2.12889 0.904827 0
      vertex -1.84062 0.929776 0
    endloop
  endfacet
  facet normal 0 0 -1
    outer loop
      vertex -5 0 0
      vertex -1.84062 0.929776 0
      vertex -1.54508 0.951057 0
    endloop
  endfacet
  facet normal 0 0 -1
    outer loop
      vertex -5 0 0
      vertex -1.54508 0.951057 0
      vertex -1.24345 0.968583 0
    endloop
  endfacet
  facet normal 0 0 -1
    outer loop
      vertex -5 0 0
      vertex -1.24345 0.968583 0
      vertex -0.936905 0.982287 0
    endloop
  endfacet
  facet normal 0 0 -1
    outer loop
      vertex -5 0 0
      vertex -0.936905 0.982287 0
      vertex -0.626665 0.992115 0
    endloop
  endfacet
  facet normal 0 0 -1
    outer loop
      vertex -5 0 0
      vertex -0.626665 0.992115 0
      vertex -0.313955 0.998027 0
    endloop
  endfacet
  facet normal 0 0 -1
    outer loop
      vertex -5 0 0
      vertex -0.313955 0.998027 0
      vertex 0 1 0
    endloop
  endfacet
  facet normal 0 0 -1
    outer loop
      vertex -5 0 0
      vertex 0 1 0
      vertex 0.313955 0.998027 0
    endloop
  endfacet
  facet normal 0 0 -1
    outer loop
      vertex -5 0 0
      vertex 0.313955 0.998027 0
      vertex 0.626665 0.992115 0
    endloop
  endfacet
  facet normal 0 0 -1
    outer loop
      vertex -5 0 0
      vertex 0.626665 0.992115 0
      vertex 0.936905 0.982287 0
    endloop
  endfacet
  facet normal 0 0 -1
    outer loop
      vertex -5 0 0
      vertex 0.936905 0.982287 0
      vertex 1.24345 0.968583 0
    endloop
  endfacet
  facet normal 0 0 -1
    outer loop
      vertex -5 0 0
      vertex 1.24345 0.968583 0
      vertex 1.54508 0.951057 0
    endloop
  endfacet
  facet normal 0 0 -1
    outer loop
      vertex -5 0 0
      vertex 1.54508 0.951057 0
      vertex 1.84062 0.929776 0
    endloop
  endfacet
  facet normal 0 0 -1
    outer loop
      vertex -5 0 0
      vertex 1.84062 0.929776 0
      vertex 2.12889 0.904827 0
    endloop
  endfacet
  facet normal 0 0 -1
    outer loop
      vertex -5 0 0
      vertex 2.12889 0.904827 0
      vertex 2.40877 0.876307 0
    endloop
  endfacet
  facet normal 0 0 -1
    outer loop
      vertex -5 0 0
      vertex 2.40877 0.876307 0
      vertex 2.67913 0.844328 0
    endloop
  endfacet
  facet normal 0 0 -1
    outer loop
      vertex -5 0 0
      vertex 2.67913 0.844328 0
      vertex 2.93892 0.809017 0
    endloop
  endfacet
  facet normal 0 0 -1
    outer loop
      vertex -5 0 0
      vertex 2.93892 0.809017 0
      vertex 3.18712 0.770513 0
    endloop
  endfacet
  facet normal 0 0 -1
    outer loop
      vertex -5 0 0
      vertex 3.18712 0.770513 0
      vertex 3.42273 0.728969 0
    endloop
  endfacet
  facet normal 0 0 -1
    outer loop
      vertex -5 0 0
      vertex 3.42273 0.728969 0
      vertex 3.64484 0.684547 0
    endloop
  endfacet
  facet normal 0 0 -1
    outer loop
      vertex -5 0 0
      vertex 3.64484 0.684547 0
      vertex 3.85256 0.637424 0
    endloop
  endfacet
  facet normal 0 0 -1
    outer loop
      vertex -5 0 0
      vertex 3.85256 0.637424 0
      vertex 4.04508 0.587785 0
    endloop
  endfacet
  facet normal 0 0 -1
    outer loop
      vertex -5 0 0
      vertex 4.04508 0.587785 0
      vertex 4.22164 0.535827 0
    endloop
  endfacet
  facet normal 0 0 -1
    outer loop
      vertex -5 0 0
      vertex 4.22164 0.535827 0
      vertex 4.38153 0.481754 0
    endloop
  endfacet
  facet normal 0 0 -1
    outer loop
      vertex -5 0 0
      vertex 4.38153 0.481754 0
      vertex 4.52413 0.425779 0
    endloop
  endfacet
  facet normal 0 0 -1
    outer loop
      vertex -5 0 0
      vertex 4.52413 0.425779 0
      vertex 4.64888 0.368125 0
    endloop
  endfacet
  facet normal 0 0 -1
    outer loop
      vertex -5 0 0
      vertex 4.64888 0.368125 0
      vertex 4.75528 0.309017 0
    endloop
  endfacet
  facet normal 0 0 -1
    outer loop
      vertex -5 0 0
      vertex 4.75528 0.309017 0
      vertex 4.84291 0.24869 0
    endloop
  endfacet
  facet normal 0 0 -1
    outer loop
      vertex -5 0 0
      vertex 4.84291 0.24869 0
      vertex 4.91143 0.187381 0
    endloop
  endfacet
  facet normal 0 0 -1
    outer loop
      vertex -5 0 0
      vertex 4.91143 0.187381 0
      vertex 4.96057 0.125333 0
    endloop
  endfacet
  facet normal 0 0 -1
    outer loop
      vertex -5 0 0
      vertex 4.96057 0.125333 0
      vertex 4.99013 0.062791 0
    endloop
  endfacet
  facet normal 0 0 -1
    outer loop
      vertex -5 0 0
      vertex 4.99013 0.062791 0
      vertex 5 0 0
    endloop
  endfacet
  facet normal 0 0 -1
    outer loop
      vertex -5 0 0
      vertex 5 0 0
      vertex 4.99013 -0.062791 0
    endloop
  endfacet
  facet normal 0 0 -1
    outer loop
      vertex -5 0 0
      vertex 4.99013 -0.062791 0
      vertex 4.96057 -0.125333 0
    endloop
  endfacet
  facet normal 0 0 -1
    outer loop
      vertex -5 0 0
      vertex 4.96057 -0.125333 0
      vertex 4.91143 -0.187381 0
    endloop
  endfacet
  facet normal 0 0 -1
    outer loop
      vertex -5 0 0
      vertex 4.91143 -0.187381 0
      vertex 4.84291 -0.24869 0
    endloop
  endfacet
  facet normal 0 0 -1
    outer loop
      vertex -5 0 0
      vertex 4.84291 -0.24869 0
      vertex 4.75528 -0.309017 0
    endloop
  endfacet
  facet normal 0 0 -1
    outer loop
      vertex -5 0 0
      vertex 4.75528 -0.309017 0
      vertex 4.64888 -0.368125 0
    endloop
  endfacet
  facet normal 0 0 -1
    outer loop
      vertex -5 0 0
      vertex 4.64888 -0.368125 0
      vertex 4.52413 -0.425779 0
    endloop
  endfacet
  facet normal 0 0 -1
    outer loop
      vertex -5 0 0
      vertex 4.52413 -0.425779 0
      vertex 4.38153 -0.481754 0
    endloop
  endfacet
  facet normal 0 0 -1
    outer loop
      vertex -5 0 0
      vertex 4.38153 -0.481754 0
      vertex 4.22164 -0.535827 0
    endloop
  endfacet
  facet normal 0 0 -1
    outer loop
      vertex -5 0 0
      vertex 4.22164 -0.535827 0
      vertex 4.04508 -0.587785 0
    endloop
  endfacet
  facet normal 0 0 -1
    outer loop
      vertex -5 0 0
      vertex 4.04508 -0.587785 0
      vertex 3.85256 -0.637424 0
    endloop
  endfacet
  facet normal 0 0 -1
    outer loop
      vertex -5 0 0
      vertex 3.85256 -0.637424 0
      vertex 3.64484 -0.684547 0
    endloop
  endfacet
  facet normal 0 0 -1
    outer loop
      vertex -5 0 0
      vertex 3.64484 -0.684547 0
      vertex 3.42273 -0.728969 0
    endloop
  endfacet
  facet normal 0 0 -1
    outer loop
      vertex -5 0 0
      vertex 3.42273 -0.728969 0
      vertex 3.18712 -0.770513 0
    endloop
  endfacet
  facet normal 0 0 -1
    outer loop
      vertex -5 0 0
      vertex 3.18712 -0.770513 0
      vertex 2.93892 -0.809017 0
    endloop
  endfacet
  facet normal 0 0 -1
    outer loop
      vertex -5 0 0
      vertex 2.93892 -0.809017 0
      vertex 2.67913 -0.844328 0
    endloop
  endfacet
  facet normal 0 0 -1
    outer loop
      vertex -5 0 0
      vertex 2.67913 -0.844328 0
      vertex 2.40877 -0.876307 0
    endloop
  endfacet
  facet normal 0 0 -1
    outer loop
      vertex -5 0 0
      vertex 2.40877 -0.876307 0
      vertex 2.12889 -0.904827 0
    endloop
  endfacet
  facet normal 0 0 -1
    outer loop
      vertex -5 0 0
      vertex 2.12889 -0.904827 0
      vertex 1.84062 -0.929776 0
    endloop
  endfacet
  facet normal 0 0 -1
    outer loop
      vertex -5 0 0
      vertex 1.84062 -0.929776 0
      vertex 1.54508 -0.951057 0
    endloop
  endfacet
  facet normal 0 0 -1
    outer loop
      vertex -5 0 0
      vertex 1.54508 -0.951057 0
      vertex 1.24345 -0.968583 0
    endloop
  endfacet
  facet normal 0 0 -1
    outer loop
      vertex -5 0 0
      vertex 1.24345 -0.968583 0
      vertex 0.936905 -0.982287 0
    endloop
  endfacet
  facet normal 0 0 -1
    outer loop
      vertex -5 0 0
      vertex 0.936905 -0.982287 0
      vertex 0.626665 -0.992115 0
    endloop
  endfacet
  facet normal 0 0 -1
    outer loop
      vertex -5 0 0
      vertex 0.626665 -0.992115 0
      vertex 0.313955 -0.998027 0
    endloop
  endfacet
  facet normal 0 0 -1
    outer loop
      vertex -5 0 0
      vertex 0.313955 -0.998027 0
      vertex 0 -1 0
    endloop
  endfacet
  facet normal 0 0 -1
    outer loop
      vertex -5 0 0
      vertex 0 -1 0
      vertex -0.313955 -0.998027 0
    endloop
  endfacet
  facet normal 0 0 -1
    outer loop
      vertex -5 0 0
      vertex -0.313955 -0.998027 0
      vertex -0.626665 -0.992115 0
    endloop
  endfacet
  facet normal 0 0 -1
    outer loop
      vertex -5 0 0
      vertex -0.626665 -0.992115 0
      vertex -0.936905 -0.982287 0
    endloop
  endfacet
  facet normal 0 0 -1
    outer loop
      vertex -5 0 0
      vertex -0.936905 -0.982287 0
      vertex -1.24345 -0.968583 0
    endloop
  endfacet
  facet normal 0 0 -1
    outer loop
      vertex -5 0 0
      vertex -1.24345 -0.968583 0
      vertex -1.54508 -0.951057 0
    endloop
  endfacet
  facet normal 0 0 -1
    outer loop
      vertex -5 0 0
      vertex -1.54508 -0.951057 0
      vertex -1.84062 -0.929776 0
    endloop
  endfacet
  facet normal 0 0 -1
    outer loop
      vertex -5 0 0
      vertex -1.84062 -0.929776 0
      vertex -2.12889 -0.904827 0
    endloop
  endfacet
  facet normal 0 0 -1
    outer loop
      vertex -5 0 0
      vertex -2.12889 -0.904827 0
      vertex -2.40877 -0.876307 0
    endloop
  endfacet
  facet normal 0 0 -1
    outer loop
      vertex -5 0 0
      vertex -2.40877 -0.876307 0
      vertex -2.67913 -0.844328 0
    endloop
  endfacet
  facet normal 0 0 -1
    outer loop
      vertex -5 0 0
      vertex -2.67913 -0.844328 0
      vertex -2.93892 -0.809017 0
    endloop
  endfacet
  facet normal 0 0 -1
    outer loop
      vertex -5 0 0
      vertex -2.93892 -0.809017 0
      vertex -3.18712 -0.770513 0
    endloop
  endfacet
  facet normal 0 0 -1
    outer loop
      vertex -5 0 0
      vertex -3.18712 -0.770513 0
      vertex -3.42273 -0.728969 0
    endloop
  endfacet
  facet normal 0 0 -1
    outer loop
      vertex -5 0 0
      vertex -3.42273 -0.728969 0
      vertex -3.64484 -0.684547 0
    endloop
  endfacet
  facet normal 0 0 -1
    outer loop
      vertex -5 0 0
      vertex -3.64484 -0.684547 0
      vertex -3.85256 -0.637424 0
    endloop
  endfacet
  facet normal 0 0 -1
    outer loop
      vertex -5 0 0
      vertex -3.85256 -0.637424 0
      vertex -4.04508 -0.587785 0
    endloop
  endfacet
  facet normal 0 0 -1
    outer loop
      vertex -5 0 0
      vertex -4.04508 -0.587785 0
      vertex -4.22164 -0.535827 0
    endloop
  endfacet
  facet normal 0 0 -1
    outer loop
      vertex -5 0 0
      vertex -4.22164 -0.535827 0
      vertex -4.38153 -0.481754 0
    endloop
  endfacet
  facet normal 0 0 -1
    outer loop
      vertex -5 0 0
      vertex -4.38153 -0.481754 0
      vertex -4.52413 -0.425779 0
    endloop
  endfacet
  facet normal 0 0 -1
    outer loop
      vertex -5 0 0
      vertex -4.52413 -0.425779 0
      vertex -4.64888 -0.368125 0
    endloop
  endfacet
  facet normal 0 0 -1
    outer loop
      vertex -5 0 0
      vertex -4.64888 -0.368125 0
      vertex -4.75528 -0.309017 0
    endloop
  endfacet
  facet normal 0 0 -1
    outer loop
      vertex -5 0 0
      vertex -4.75528 -0.309017 0
      vertex -4.84291 -0.24869 0
    endloop
  endfacet
  facet normal 0 0 -1
    outer loop
      vertex -5 0 0
      vertex -4.84291 -0.24869 0
      vertex -4.91143 -0.187381 0
    endloop
  endfacet
  facet normal 0 0 -1
    outer loop
      vertex -5 0 0
      vertex -4.91143 -0.187381 0
      vertex -4.96057 -0.125333 0
    endloop
  endfacet
  facet normal 0 0 -1
    outer loop
      vertex -5 0 0
      vertex -4.96057 -0.125333 0
      vertex -4.99013 -0.062791 0
    endloop
  endfacet
  facet normal 0.987882 0.155205 0
    outer loop
      vertex 4.99013 0.062791 0
      vertex 4.99013 0.062791 3
      vertex 5 0 3
    endloop
  endfacet
  facet normal 0.987882 0.155205 0
    outer loop
      vertex 5 0 0
      vertex 4.99013 0.062791 0
      vertex 5 0 3
    endloop
  endfacet
  facet normal 0.904102 0.427317 0
    outer loop
      vertex 4.96057 0.125333 0
      vertex 4.96057 0.125333 3
      vertex 4.99013 0.062791 3
    endloop
  endfacet
  facet normal 0.904102 0.427317 0
    outer loop
      vertex 4.99013 0.062791 0
      vertex 4.96057 0.125333 0
      vertex 4.99013 0.062791 3
    endloop
  endfacet
  facet normal -0.987882 0.155205 0
    outer loop
      vertex -5 0 3
      vertex -4.99013 0.062791 3
      vertex -5 0 0
    endloop
  endfacet
  facet normal -0.987882 0.155205 0
    outer loop
      vertex -5 0 0
      vertex -4.99013 0.062791 3
      vertex -4.99013 0.062791 0
    endloop
  endfacet
  facet normal -0.987882 -0.155205 0
    outer loop
      vertex -4.99013 -0.062791 0
      vertex -4.99013 -0.062791 3
      vertex -5 0 0
    endloop
  endfacet
  facet normal -0.987882 -0.155205 0
    outer loop
      vertex -5 0 0
      vertex -4.99013 -0.062791 3
      vertex -5 0 3
    endloop
  endfacet
  facet normal -0.904102 -0.427317 0
    outer loop
      vertex -4.96057 -0.125333 0
      vertex -4.96057 -0.125333 3
      vertex -4.99013 -0.062791 0
    endloop
  endfacet
  facet normal -0.904102 -0.427317 0
    outer loop
      vertex -4.99013 -0.062791 0
      vertex -4.96057 -0.125333 3
      vertex -4.99013 -0.062791 3
    endloop
  endfacet
  facet normal -0.783931 -0.620848 0
    outer loop
      vertex -4.91143 -0.187381 0
      vertex -4.91143 -0.187381 3
      vertex -4.96057 -0.125333 0
    endloop
  endfacet
  facet normal -0.783931 -0.620848 0
    outer loop
      vertex -4.96057 -0.125333 0
      vertex -4.91143 -0.187381 3
      vertex -4.96057 -0.125333 3
    endloop
  endfacet
  facet normal -0.666805 -0.745232 0
    outer loop
      vertex -4.91143 -0.187381 0
      vertex -4.84291 -0.24869 0
      vertex -4.84291 -0.24869 3
    endloop
  endfacet
  facet normal -0.666805 -0.745232 0
    outer loop
      vertex -4.91143 -0.187381 3
      vertex -4.91143 -0.187381 0
      vertex -4.84291 -0.24869 3
    endloop
  endfacet
  facet normal -0.567048 -0.823685 0
    outer loop
      vertex -4.84291 -0.24869 0
      vertex -4.75528 -0.309017 0
      vertex -4.75528 -0.309017 3
    endloop
  endfacet
  facet normal -0.567048 -0.823685 0
    outer loop
      vertex -4.84291 -0.24869 3
      vertex -4.84291 -0.24869 0
      vertex -4.75528 -0.309017 3
    endloop
  endfacet
  facet normal -0.485606 -0.874178 0
    outer loop
      vertex -4.75528 -0.309017 0
      vertex -4.64888 -0.368125 0
      vertex -4.64888 -0.368125 3
    endloop
  endfacet
  facet normal -0.485606 -0.874178 0
    outer loop
      vertex -4.75528 -0.309017 3
      vertex -4.75528 -0.309017 0
      vertex -4.64888 -0.368125 3
    endloop
  endfacet
  facet normal -0.419534 -0.907739 0
    outer loop
      vertex -4.64888 -0.368125 0
      vertex -4.52413 -0.425779 0
      vertex -4.52413 -0.425779 3
    endloop
  endfacet
  facet normal -0.419534 -0.907739 0
    outer loop
      vertex -4.64888 -0.368125 3
      vertex -4.64888 -0.368125 0
      vertex -4.52413 -0.425779 3
    endloop
  endfacet
  facet normal -0.36539 -0.930855 0
    outer loop
      vertex -4.52413 -0.425779 0
      vertex -4.38153 -0.481754 0
      vertex -4.38153 -0.481754 3
    endloop
  endfacet
  facet normal -0.36539 -0.930855 0
    outer loop
      vertex -4.52413 -0.425779 3
      vertex -4.52413 -0.425779 0
      vertex -4.38153 -0.481754 3
    endloop
  endfacet
  facet normal -0.320355 -0.947297 0
    outer loop
      vertex -4.38153 -0.481754 0
      vertex -4.22164 -0.535827 0
      vertex -4.22164 -0.535827 3
    endloop
  endfacet
  facet normal -0.320355 -0.947297 0
    outer loop
      vertex -4.38153 -0.481754 3
      vertex -4.38153 -0.481754 0
      vertex -4.22164 -0.535827 3
    endloop
  endfacet
  facet normal -0.282317 -0.959321 0
    outer loop
      vertex -4.22164 -0.535827 0
      vertex -4.04508 -0.587785 0
      vertex -4.04508 -0.587785 3
    endloop
  endfacet
  facet normal -0.282317 -0.959321 0
    outer loop
      vertex -4.22164 -0.535827 3
      vertex -4.22164 -0.535827 0
      vertex -4.04508 -0.587785 3
    endloop
  endfacet
  facet normal -0.249672 -0.96833 0
    outer loop
      vertex -4.04508 -0.587785 0
      vertex -3.85256 -0.637424 0
      vertex -3.85256 -0.637424 3
    endloop
  endfacet
  facet normal -0.249672 -0.96833 0
    outer loop
      vertex -4.04508 -0.587785 3
      vertex -4.04508 -0.587785 0
      vertex -3.85256 -0.637424 3
    endloop
  endfacet
  facet normal -0.221237 -0.97522 0
    outer loop
      vertex -3.85256 -0.637424 0
      vertex -3.64484 -0.684547 0
      vertex -3.64484 -0.684547 3
    endloop
  endfacet
  facet normal -0.221237 -0.97522 0
    outer loop
      vertex -3.85256 -0.637424 3
      vertex -3.85256 -0.637424 0
      vertex -3.64484 -0.684547 3
    endloop
  endfacet
  facet normal -0.196116 -0.980581 0
    outer loop
      vertex -3.64484 -0.684547 0
      vertex -3.42273 -0.728969 0
      vertex -3.42273 -0.728969 3
    endloop
  endfacet
  facet normal -0.196116 -0.980581 0
    outer loop
      vertex -3.64484 -0.684547 3
      vertex -3.64484 -0.684547 0
      vertex -3.42273 -0.728969 3
    endloop
  endfacet
  facet normal -0.173643 -0.984809 0
    outer loop
      vertex -3.42273 -0.728969 0
      vertex -3.18712 -0.770513 0
      vertex -3.18712 -0.770513 3
    endloop
  endfacet
  facet normal -0.173643 -0.984809 0
    outer loop
      vertex -3.42273 -0.728969 3
      vertex -3.42273 -0.728969 0
      vertex -3.18712 -0.770513 3
    endloop
  endfacet
  facet normal -0.153302 -0.988179 0
    outer loop
      vertex -3.18712 -0.770513 0
      vertex -2.93892 -0.809017 0
      vertex -2.93892 -0.809017 3
    endloop
  endfacet
  facet normal -0.153302 -0.988179 0
    outer loop
      vertex -3.18712 -0.770513 3
      vertex -3.18712 -0.770513 0
      vertex -2.93892 -0.809017 3
    endloop
  endfacet
  facet normal -0.134683 -0.990889 0
    outer loop
      vertex -2.93892 -0.809017 0
      vertex -2.67913 -0.844328 0
      vertex -2.67913 -0.844328 3
    endloop
  endfacet
  facet normal -0.134683 -0.990889 0
    outer loop
      vertex -2.93892 -0.809017 3
      vertex -2.93892 -0.809017 0
      vertex -2.67913 -0.844328 3
    endloop
  endfacet
  facet normal -0.117462 -0.993077 0
    outer loop
      vertex -2.67913 -0.844328 0
      vertex -2.40877 -0.876307 0
      vertex -2.40877 -0.876307 3
    endloop
  endfacet
  facet normal -0.117462 -0.993077 0
    outer loop
      vertex -2.67913 -0.844328 3
      vertex -2.67913 -0.844328 0
      vertex -2.40877 -0.876307 3
    endloop
  endfacet
  facet normal -0.101378 -0.994848 0
    outer loop
      vertex -2.40877 -0.876307 0
      vertex -2.12889 -0.904827 0
      vertex -2.12889 -0.904827 3
    endloop
  endfacet
  facet normal -0.101378 -0.994848 0
    outer loop
      vertex -2.40877 -0.876307 3
      vertex -2.40877 -0.876307 0
      vertex -2.12889 -0.904827 3
    endloop
  endfacet
  facet normal -0.086225 -0.996276 0
    outer loop
      vertex -2.12889 -0.904827 0
      vertex -1.84062 -0.929776 0
      vertex -1.84062 -0.929776 3
    endloop
  endfacet
  facet normal -0.086225 -0.996276 0
    outer loop
      vertex -2.12889 -0.904827 3
      vertex -2.12889 -0.904827 0
      vertex -1.84062 -0.929776 3
    endloop
  endfacet
  facet normal -0.0718212 -0.997418 0
    outer loop
      vertex -1.84062 -0.929776 0
      vertex -1.54508 -0.951057 0
      vertex -1.54508 -0.951057 3
    endloop
  endfacet
  facet normal -0.0718212 -0.997418 0
    outer loop
      vertex -1.84062 -0.929776 3
      vertex -1.84062 -0.929776 0
      vertex -1.54508 -0.951057 3
    endloop
  endfacet
  facet normal -0.0580055 -0.998316 0
    outer loop
      vertex -1.54508 -0.951057 0
      vertex -1.24345 -0.968583 0
      vertex -1.24345 -0.968583 3
    endloop
  endfacet
  facet normal -0.0580055 -0.998316 0
    outer loop
      vertex -1.54508 -0.951057 3
      vertex -1.54508 -0.951057 0
      vertex -1.24345 -0.968583 3
    endloop
  endfacet
  facet normal -0.0446601 -0.999002 0
    outer loop
      vertex -1.24345 -0.968583 0
      vertex -0.936905 -0.982287 0
      vertex -0.936905 -0.982287 3
    endloop
  endfacet
  facet normal -0.0446601 -0.999002 0
    outer loop
      vertex -1.24345 -0.968583 3
      vertex -1.24345 -0.968583 0
      vertex -0.936905 -0.982287 3
    endloop
  endfacet
  facet normal -0.0316628 -0.999499 0
    outer loop
      vertex -0.936905 -0.982287 0
      vertex -0.626665 -0.992115 0
      vertex -0.626665 -0.992115 3
    endloop
  endfacet
  facet normal -0.0316628 -0.999499 0
    outer loop
      vertex -0.936905 -0.982287 3
      vertex -0.936905 -0.982287 0
      vertex -0.626665 -0.992115 3
    endloop
  endfacet
  facet normal -0.0189023 -0.999821 0
    outer loop
      vertex -0.626665 -0.992115 0
      vertex -0.313955 -0.998027 0
      vertex -0.313955 -0.998027 3
    endloop
  endfacet
  facet normal -0.0189023 -0.999821 0
    outer loop
      vertex -0.626665 -0.992115 3
      vertex -0.626665 -0.992115 0
      vertex -0.313955 -0.998027 3
    endloop
  endfacet
  facet normal -0.00628422 -0.99998 0
    outer loop
      vertex -0.313955 -0.998027 0
      vertex 0 -1 0
      vertex 0 -1 3
    endloop
  endfacet
  facet normal -0.00628422 -0.99998 0
    outer loop
      vertex -0.313955 -0.998027 3
      vertex -0.313955 -0.998027 0
      vertex 0 -1 3
    endloop
  endfacet
  facet normal 0.00628422 -0.99998 0
    outer loop
      vertex 0 -1 0
      vertex 0.313955 -0.998027 0
      vertex 0.313955 -0.998027 3
    endloop
  endfacet
  facet normal 0.00628422 -0.99998 0
    outer loop
      vertex 0 -1 3
      vertex 0 -1 0
      vertex 0.313955 -0.998027 3
    endloop
  endfacet
  facet normal 0.0189023 -0.999821 0
    outer loop
      vertex 0.313955 -0.998027 0
      vertex 0.626665 -0.992115 0
      vertex 0.626665 -0.992115 3
    endloop
  endfacet
  facet normal 0.0189023 -0.999821 0
    outer loop
      vertex 0.313955 -0.998027 3
      vertex 0.313955 -0.998027 0
      vertex 0.626665 -0.992115 3
    endloop
  endfacet
  facet normal 0.0316628 -0.999499 0
    outer loop
      vertex 0.626665 -0.992115 0
      vertex 0.936905 -0.982287 0
      vertex 0.936905 -0.982287 3
    endloop
  endfacet
  facet normal 0.0316628 -0.999499 0
    outer loop
      vertex 0.626665 -0.992115 3
      vertex 0.626665 -0.992115 0
      vertex 0.936905 -0.982287 3
    endloop
  endfacet
  facet normal 0.0446601 -0.999002 0
    outer loop
      vertex 0.936905 -0.982287 0
      vertex 1.24345 -0.968583 0
      vertex 1.24345 -0.968583 3
    endloop
  endfacet
  facet normal 0.0446601 -0.999002 0
    outer loop
      vertex 0.936905 -0.982287 3
      vertex 0.936905 -0.982287 0
      vertex 1.24345 -0.968583 3
    endloop
  endfacet
  facet normal 0.0580055 -0.998316 0
    outer loop
      vertex 1.24345 -0.968583 0
      vertex 1.54508 -0.951057 0
      vertex 1.54508 -0.951057 3
    endloop
  endfacet
  facet normal 0.0580055 -0.998316 0
    outer loop
      vertex 1.24345 -0.968583 3
      vertex 1.24345 -0.968583 0
      vertex 1.54508 -0.951057 3
    endloop
  endfacet
  facet normal 0.0718212 -0.997418 0
    outer loop
      vertex 1.54508 -0.951057 0
      vertex 1.84062 -0.929776 0
      vertex 1.84062 -0.929776 3
    endloop
  endfacet
  facet normal 0.0718212 -0.997418 0
    outer loop
      vertex 1.54508 -0.951057 3
      vertex 1.54508 -0.951057 0
      vertex 1.84062 -0.929776 3
    endloop
  endfacet
  facet normal 0.086225 -0.996276 0
    outer loop
      vertex 1.84062 -0.929776 0
      vertex 2.12889 -0.904827 0
      vertex 2.12889 -0.904827 3
    endloop
  endfacet
  facet normal 0.086225 -0.996276 0
    outer loop
      vertex 1.84062 -0.929776 3
      vertex 1.84062 -0.929776 0
      vertex 2.12889 -0.904827 3
    endloop
  endfacet
  facet normal 0.101378 -0.994848 0
    outer loop
      vertex 2.12889 -0.904827 0
      vertex 2.40877 -0.876307 0
      vertex 2.40877 -0.876307 3
    endloop
  endfacet
  facet normal 0.101378 -0.994848 0
    outer loop
      vertex 2.12889 -0.904827 3
      vertex 2.12889 -0.904827 0
      vertex 2.40877 -0.876307 3
    endloop
  endfacet
  facet normal 0.117462 -0.993077 0
    outer loop
      vertex 2.40877 -0.876307 0
      vertex 2.67913 -0.844328 0
      vertex 2.67913 -0.844328 3
    endloop
  endfacet
  facet normal 0.117462 -0.993077 0
    outer loop
      vertex 2.40877 -0.876307 3
      vertex 2.40877 -0.876307 0
      vertex 2.67913 -0.844328 3
    endloop
  endfacet
  facet normal 0.134683 -0.990889 0
    outer loop
      vertex 2.67913 -0.844328 0
      vertex 2.93892 -0.809017 0
      vertex 2.93892 -0.809017 3
    endloop
  endfacet
  facet normal 0.134683 -0.990889 0
    outer loop
      vertex 2.67913 -0.844328 3
      vertex 2.67913 -0.844328 0
      vertex 2.93892 -0.809017 3
    endloop
  endfacet
  facet normal 0.153302 -0.988179 0
    outer loop
      vertex 2.93892 -0.809017 0
      vertex 3.18712 -0.770513 0
      vertex 3.18712 -0.770513 3
    endloop
  endfacet
  facet normal 0.153302 -0.988179 0
    outer loop
      vertex 2.93892 -0.809017 3
      vertex 2.93892 -0.809017 0
      vertex 3.18712 -0.770513 3
    endloop
  endfacet
  facet normal 0.173643 -0.984809 0
    outer loop
      vertex 3.18712 -0.770513 0
      vertex 3.42273 -0.728969 0
      vertex 3.42273 -0.728969 3
    endloop
  endfacet
  facet normal 0.173643 -0.984809 0
    outer loop
      vertex 3.18712 -0.770513 3
      vertex 3.18712 -0.770513 0
      vertex 3.42273 -0.728969 3
    endloop
  endfacet
  facet normal 0.196116 -0.980581 0
    outer loop
      vertex 3.42273 -0.728969 0
      vertex 3.64484 -0.684547 0
      vertex 3.64484 -0.684547 3
    endloop
  endfacet
  facet normal 0.196116 -0.980581 0
    outer loop
      vertex 3.42273 -0.728969 3
      vertex 3.42273 -0.728969 0
      vertex 3.64484 -0.684547 3
    endloop
  endfacet
  facet normal 0.221237 -0.97522 0
    outer loop
      vertex 3.64484 -0.684547 0
      vertex 3.85256 -0.637424 0
      vertex 3.85256 -0.637424 3
    endloop
  endfacet
  facet normal 0.221237 -0.97522 0
    outer loop
      vertex 3.64484 -0.684547 3
      vertex 3.64484 -0.684547 0
      vertex 3.85256 -0.637424 3
    endloop
  endfacet
  facet normal 0.249672 -0.96833 0
    outer loop
      vertex 3.85256 -0.637424 0
      vertex 4.04508 -0.587785 0
      vertex 4.04508 -0.587785 3
    endloop
  endfacet
  facet normal 0.249672 -0.96833 0
    outer loop
      vertex 3.85256 -0.637424 3
      vertex 3.85256 -0.637424 0
      vertex 4.04508 -0.587785 3
    endloop
  endfacet
  facet normal 0.282317 -0.959321 0
    outer loop
      vertex 4.04508 -0.587785 0
      vertex 4.22164 -0.535827 0
      vertex 4.22164 -0.535827 3
    endloop
  endfacet
  facet normal 0.282317 -0.959321 0
    outer loop
      vertex 4.04508 -0.587785 3
      vertex 4.04508 -0.587785 0
      vertex 4.22164 -0.535827 3
    endloop
  endfacet
  facet normal 0.320355 -0.947297 0
    outer loop
      vertex 4.22164 -0.535827 0
      vertex 4.38153 -0.481754 0
      vertex 4.38153 -0.481754 3
    endloop
  endfacet
  facet normal 0.320355 -0.947297 0
    outer loop
      vertex 4.22164 -0.535827 3
      vertex 4.22164 -0.535827 0
      vertex 4.38153 -0.481754 3
    endloop
  endfacet
  facet normal 0.36539 -0.930855 0
    outer loop
      vertex 4.38153 -0.481754 0
      vertex 4.52413 -0.425779 0
      vertex 4.52413 -0.425779 3
    endloop
  endfacet
  facet normal 0.36539 -0.930855 0
    outer loop
      vertex 4.38153 -0.481754 3
      vertex 4.38153 -0.481754 0
      vertex 4.52413 -0.425779 3
    endloop
  endfacet
  facet normal 0.419534 -0.907739 0
    outer loop
      vertex 4.52413 -0.425779 0
      vertex 4.64888 -0.368125 0
      vertex 4.64888 -0.368125 3
    endloop
  endfacet
  facet normal 0.419534 -0.907739 0
    outer loop
      vertex 4.52413 -0.425779 3
      vertex 4.52413 -0.425779 0
      vertex 4.64888 -0.368125 3
    endloop
  endfacet
  facet normal 0.485606 -0.874178 0
    outer loop
      vertex 4.64888 -0.368125 0
      vertex 4.75528 -0.309017 0
      vertex 4.75528 -0.309017 3
    endloop
  endfacet
  facet normal 0.485606 -0.874178 0
    outer loop
      vertex 4.64888 -0.368125 3
      vertex 4.64888 -0.368125 0
      vertex 4.75528 -0.309017 3
    endloop
  endfacet
  facet normal 0.567048 -0.823685 0
    outer loop
      vertex 4.75528 -0.309017 0
      vertex 4.84291 -0.24869 0
      vertex 4.84291 -0.24869 3
    endloop
  endfacet
  facet normal 0.567048 -0.823685 0
    outer loop
      vertex 4.75528 -0.309017 3
      vertex 4.75528 -0.309017 0
      vertex 4.84291 -0.24869 3
    endloop
  endfacet
  facet normal 0.666805 -0.745232 0
    outer loop
      vertex 4.84291 -0.24869 0
      vertex 4.91143 -0.187381 0
      vertex 4.91143 -0.187381 3
    endloop
  endfacet
  facet normal 0.666805 -0.745232 0
    outer loop
      vertex 4.84291 -0.24869 3
      vertex 4.84291 -0.24869 0
      vertex 4.91143 -0.187381 3
    endloop
  endfacet
  facet normal 0.783931 -0.620848 0
    outer loop
      vertex 4.91143 -0.187381 0
      vertex 4.96057 -0.125333 0
      vertex 4.96057 -0.125333 3
    endloop
  endfacet
  facet normal 0.783931 -0.620848 0
    outer loop
      vertex 4.91143 -0.187381 3
      vertex 4.91143 -0.187381 0
      vertex 4.96057 -0.125333 3
    endloop
  endfacet
  facet normal 0.904102 -0.427317 0
    outer loop
      vertex 4.96057 -0.125333 0
      vertex 4.99013 -0.062791 0
      vertex 4.99013 -0.062791 3
    endloop
  endfacet
  facet normal 0.904102 -0.427317 0
    outer loop
      vertex 4.96057 -0.125333 3
      vertex 4.96057 -0.125333 0
      vertex 4.99013 -0.062791 3
    endloop
  endfacet
  facet normal 0.987882 -0.155205 0
    outer loop
      vertex 4.99013 -0.062791 0
      vertex 5 0 0
      vertex 5 0 3
    endloop
  endfacet
  facet normal 0.987882 -0.155205 0
    outer loop
      vertex 4.99013 -0.062791 3
      vertex 4.99013 -0.062791 0
      vertex 5 0 3
    endloop
  endfacet
  facet normal 0.783931 0.620848 0
    outer loop
      vertex 4.91143 0.187381 0
      vertex 4.91143 0.187381 3
      vertex 4.96057 0.125333 3
    endloop
  endfacet
  facet normal 0.783931 0.620848 0
    outer loop
      vertex 4.96057 0.125333 0
      vertex 4.91143 0.187381 0
      vertex 4.96057 0.125333 3
    endloop
  endfacet
  facet normal 0.666805 0.745232 0
    outer loop
      vertex 4.84291 0.24869 3
      vertex 4.91143 0.187381 3
      vertex 4.84291 0.24869 0
    endloop
  endfacet
  facet normal 0.666805 0.745232 0
    outer loop
      vertex 4.84291 0.24869 0
      vertex 4.91143 0.187381 3
      vertex 4.91143 0.187381 0
    endloop
  endfacet
  facet normal 0.567048 0.823685 0
    outer loop
      vertex 4.75528 0.309017 3
      vertex 4.84291 0.24869 3
      vertex 4.75528 0.309017 0
    endloop
  endfacet
  facet normal 0.567048 0.823685 0
    outer loop
      vertex 4.75528 0.309017 0
      vertex 4.84291 0.24869 3
      vertex 4.84291 0.24869 0
    endloop
  endfacet
  facet normal 0.485606 0.874178 0
    outer loop
      vertex 4.64888 0.368125 3
      vertex 4.75528 0.309017 3
      vertex 4.64888 0.368125 0
    endloop
  endfacet
  facet normal 0.485606 0.874178 0
    outer loop
      vertex 4.64888 0.368125 0
      vertex 4.75528 0.309017 3
      vertex 4.75528 0.309017 0
    endloop
  endfacet
  facet normal 0.419534 0.907739 0
    outer loop
      vertex 4.52413 0.425779 3
      vertex 4.64888 0.368125 3
      vertex 4.52413 0.425779 0
    endloop
  endfacet
  facet normal 0.419534 0.907739 0
    outer loop
      vertex 4.52413 0.425779 0
      vertex 4.64888 0.368125 3
      vertex 4.64888 0.368125 0
    endloop
  endfacet
  facet normal 0.36539 0.930855 0
    outer loop
      vertex 4.38153 0.481754 3
      vertex 4.52413 0.425779 3
      vertex 4.38153 0.481754 0
    endloop
  endfacet
  facet normal 0.36539 0.930855 0
    outer loop
      vertex 4.38153 0.481754 0
      vertex 4.52413 0.425779 3
      vertex 4.52413 0.425779 0
    endloop
  endfacet
  facet normal 0.320355 0.947297 0
    outer loop
      vertex 4.22164 0.535827 3
      vertex 4.38153 0.481754 3
      vertex 4.22164 0.535827 0
    endloop
  endfacet
  facet normal 0.320355 0.947297 0
    outer loop
      vertex 4.22164 0.535827 0
      vertex 4.38153 0.481754 3
      vertex 4.38153 0.481754 0
    endloop
  endfacet
  facet normal 0.282317 0.959321 0
    outer loop
      vertex 4.04508 0.587785 3
      vertex 4.22164 0.535827 3
      vertex 4.04508 0.587785 0
    endloop
  endfacet
  facet normal 0.282317 0.959321 0
    outer loop
      vertex 4.04508 0.587785 0
      vertex 4.22164 0.535827 3
      vertex 4.22164 0.535827 0
    endloop
  endfacet
  facet normal 0.249672 0.96833 0
    outer loop
      vertex 3.85256 0.637424 3
      vertex 4.04508 0.587785 3
      vertex 3.85256 0.637424 0
    endloop
  endfacet
  facet normal 0.249672 0.96833 0
    outer loop
      vertex 3.85256 0.637424 0
      vertex 4.04508 0.587785 3
      vertex 4.04508 0.587785 0
    endloop
  endfacet
  facet normal 0.221237 0.97522 0
    outer loop
      vertex 3.64484 0.684547 3
      vertex 3.85256 0.637424 3
      vertex 3.64484 0.684547 0
    endloop
  endfacet
  facet normal 0.221237 0.97522 0
    outer loop
      vertex 3.64484 0.684547 0
      vertex 3.85256 0.637424 3
      vertex 3.85256 0.637424 0
    endloop
  endfacet
  facet normal 0.196116 0.980581 0
    outer loop
      vertex 3.42273 0.728969 3
      vertex 3.64484 0.684547 3
      vertex 3.42273 0.728969 0
    endloop
  endfacet
  facet normal 0.196116 0.980581 0
    outer loop
      vertex 3.42273 0.728969 0
      vertex 3.64484 0.684547 3
      vertex 3.64484 0.684547 0
    endloop
  endfacet
  facet normal 0.173643 0.984809 0
    outer loop
      vertex 3.18712 0.770513 3
      vertex 3.42273 0.728969 3
      vertex 3.18712 0.770513 0
    endloop
  endfacet
  facet normal 0.173643 0.984809 0
    outer loop
      vertex 3.18712 0.770513 0
      vertex 3.42273 0.728969 3
      vertex 3.42273 0.728969 0
    endloop
  endfacet
  facet normal 0.153302 0.988179 0
    outer loop
      vertex 2.93892 0.809017 3
      vertex 3.18712 0.770513 3
      vertex 2.93892 0.809017 0
    endloop
  endfacet
  facet normal 0.153302 0.988179 0
    outer loop
      vertex 2.93892 0.809017 0
      vertex 3.18712 0.770513 3
      vertex 3.18712 0.770513 0
    endloop
  endfacet
  facet normal 0.134683 0.990889 0
    outer loop
      vertex 2.67913 0.844328 3
      vertex 2.93892 0.809017 3
      vertex 2.67913 0.844328 0
    endloop
  endfacet
  facet normal 0.134683 0.990889 0
    outer loop
      vertex 2.67913 0.844328 0
      vertex 2.93892 0.809017 3
      vertex 2.93892 0.809017 0
    endloop
  endfacet
  facet normal 0.117462 0.993077 0
    outer loop
      vertex 2.40877 0.876307 3
      vertex 2.67913 0.844328 3
      vertex 2.40877 0.876307 0
    endloop
  endfacet
  facet normal 0.117462 0.993077 0
    outer loop
      vertex 2.40877 0.876307 0
      vertex 2.67913 0.844328 3
      vertex 2.67913 0.844328 0
    endloop
  endfacet
  facet normal 0.101378 0.994848 0
    outer loop
      vertex 2.12889 0.904827 3
      vertex 2.40877 0.876307 3
      vertex 2.12889 0.904827 0
    endloop
  endfacet
  facet normal 0.101378 0.994848 0
    outer loop
      vertex 2.12889 0.904827 0
      vertex 2.40877 0.876307 3
      vertex 2.40877 0.876307 0
    endloop
  endfacet
  facet normal 0.086225 0.996276 0
    outer loop
      vertex 1.84062 0.929776 3
      vertex 2.12889 0.904827 3
      vertex 1.84062 0.929776 0
    endloop
  endfacet
  facet normal 0.086225 0.996276 0
    outer loop
      vertex 1.84062 0.929776 0
      vertex 2.12889 0.904827 3
      vertex 2.12889 0.904827 0
    endloop
  endfacet
  facet normal 0.0718212 0.997418 0
    outer loop
      vertex 1.54508 0.951057 3
      vertex 1.84062 0.929776 3
      vertex 1.54508 0.951057 0
    endloop
  endfacet
  facet normal 0.0718212 0.997418 0
    outer loop
      vertex 1.54508 0.951057 0
      vertex 1.84062 0.929776 3
      vertex 1.84062 0.929776 0
    endloop
  endfacet
  facet normal 0.0580055 0.998316 0
    outer loop
      vertex 1.24345 0.968583 3
      vertex 1.54508 0.951057 3
      vertex 1.24345 0.968583 0
    endloop
  endfacet
  facet normal 0.0580055 0.998316 0
    outer loop
      vertex 1.24345 0.968583 0
      vertex 1.54508 0.951057 3
      vertex 1.54508 0.951057 0
    endloop
  endfacet
  facet normal 0.0446601 0.999002 0
    outer loop
      vertex 0.936905 0.982287 3
      vertex 1.24345 0.968583 3
      vertex 0.936905 0.982287 0
    endloop
  endfacet
  facet normal 0.0446601 0.999002 0
    outer loop
      vertex 0.936905 0.982287 0
      vertex 1.24345 0.968583 3
      vertex 1.24345 0.968583 0
    endloop
  endfacet
  facet normal 0.0316628 0.999499 0
    outer loop
      vertex 0.626665 0.992115 3
      vertex 0.936905 0.982287 3
      vertex 0.626665 0.992115 0
    endloop
  endfacet
  facet normal 0.0316628 0.999499 0
    outer loop
      vertex 0.626665 0.992115 0
      vertex 0.936905 0.982287 3
      vertex 0.936905 0.982287 0
    endloop
  endfacet
  facet normal 0.0189023 0.999821 0
    outer loop
      vertex 0.313955 0.998027 3
      vertex 0.626665 0.992115 3
      vertex 0.313955 0.998027 0
    endloop
  endfacet
  facet normal 0.0189023 0.999821 0
    outer loop
      vertex 0.313955 0.998027 0
      vertex 0.626665 0.992115 3
      vertex 0.626665 0.992115 0
    endloop
  endfacet
  facet normal 0.00628422 0.99998 0
    outer loop
      vertex 0 1 3
      vertex 0.313955 0.998027 3
      vertex 0 1 0
    endloop
  endfacet
  facet normal 0.00628422 0.99998 0
    outer loop
      vertex 0 1 0
      vertex 0.313955 0.998027 3
      vertex 0.313955 0.998027 0
    endloop
  endfacet
  facet normal -0.00628422 0.99998 0
    outer loop
      vertex -0.313955 0.998027 3
      vertex 0 1 3
      vertex -0.313955 0.998027 0
    endloop
  endfacet
  facet normal -0.00628422 0.99998 0
    outer loop
      vertex -0.313955 0.998027 0
      vertex 0 1 3
      vertex 0 1 0
    endloop
  endfacet
  facet normal -0.0189023 0.999821 0
    outer loop
      vertex -0.626665 0.992115 3
      vertex -0.313955 0.998027 3
      vertex -0.626665 0.992115 0
    endloop
  endfacet
  facet normal -0.0189023 0.999821 0
    outer loop
      vertex -0.626665 0.992115 0
      vertex -0.313955 0.998027 3
      vertex -0.313955 0.998027 0
    endloop
  endfacet
  facet normal -0.0316628 0.999499 0
    outer loop
      vertex -0.936905 0.982287 3
      vertex -0.626665 0.992115 3
      vertex -0.936905 0.982287 0
    endloop
  endfacet
  facet normal -0.0316628 0.999499 0
    outer loop
      vertex -0.936905 0.982287 0
      vertex -0.626665 0.992115 3
      vertex -0.626665 0.992115 0
    endloop
  endfacet
  facet normal -0.0446601 0.999002 0
    outer loop
      vertex -1.24345 0.968583 3
      vertex -0.936905 0.982287 3
      vertex -1.24345 0.968583 0
    endloop
  endfacet
  facet normal -0.0446601 0.999002 0
    outer loop
      vertex -1.24345 0.968583 0
      vertex -0.936905 0.982287 3
      vertex -0.936905 0.982287 0
    endloop
  endfacet
  facet normal -0.0580055 0.998316 0
    outer loop
      vertex -1.54508 0.951057 3
      vertex -1.24345 0.968583 3
      vertex -1.54508 0.951057 0
    endloop
  endfacet
  facet normal -0.0580055 0.998316 0
    outer loop
      vertex -1.54508 0.951057 0
      vertex -1.24345 0.968583 3
      vertex -1.24345 0.968583 0
    endloop
  endfacet
  facet normal -0.0718212 0.997418 0
    outer loop
      vertex -1.84062 0.929776 3
      vertex -1.54508 0.951057 3
      vertex -1.84062 0.929776 0
    endloop
  endfacet
  facet normal -0.0718212 0.997418 0
    outer loop
      vertex -1.84062 0.929776 0
      vertex -1.54508 0.951057 3
      vertex -1.54508 0.951057 0
    endloop
  endfacet
  facet normal -0.086225 0.996276 0
    outer loop
      vertex -2.12889 0.904827 3
      vertex -1.84062 0.929776 3
      vertex -2.12889 0.904827 0
    endloop
  endfacet
  facet normal -0.086225 0.996276 0
    outer loop
      vertex -2.12889 0.904827 0
      vertex -1.84062 0.929776 3
      vertex -1.84062 0.929776 0
    endloop
  endfacet
  facet normal -0.101378 0.994848 0
    outer loop
      vertex -2.40877 0.876307 3
      vertex -2.12889 0.904827 3
      vertex -2.40877 0.876307 0
    endloop
  endfacet
  facet normal -0.101378 0.994848 0
    outer loop
      vertex -2.40877 0.876307 0
      vertex -2.12889 0.904827 3
      vertex -2.12889 0.904827 0
    endloop
  endfacet
  facet normal -0.117462 0.993077 0
    outer loop
      vertex -2.67913 0.844328 3
      vertex -2.40877 0.876307 3
      vertex -2.67913 0.844328 0
    endloop
  endfacet
  facet normal -0.117462 0.993077 0
    outer loop
      vertex -2.67913 0.844328 0
      vertex -2.40877 0.876307 3
      vertex -2.40877 0.876307 0
    endloop
  endfacet
  facet normal -0.134683 0.990889 0
    outer loop
      vertex -2.93892 0.809017 3
      vertex -2.67913 0.844328 3
      vertex -2.93892 0.809017 0
    endloop
  endfacet
  facet normal -0.134683 0.990889 0
    outer loop
      vertex -2.93892 0.809017 0
      vertex -2.67913 0.844328 3
      vertex -2.67913 0.844328 0
    endloop
  endfacet
  facet normal -0.153302 0.988179 0
    outer loop
      vertex -3.18712 0.770513 3
      vertex -2.93892 0.809017 3
      vertex -3.18712 0.770513 0
    endloop
  endfacet
  facet normal -0.153302 0.988179 0
    outer loop
      vertex -3.18712 0.770513 0
      vertex -2.93892 0.809017 3
      vertex -2.93892 0.809017 0
    endloop
  endfacet
  facet normal -0.173643 0.984809 0
    outer loop
      vertex -3.42273 0.728969 3
      vertex -3.18712 0.770513 3
      vertex -3.42273 0.728969 0
    endloop
  endfacet
  facet normal -0.173643 0.984809 0
    outer loop
      vertex -3.42273 0.728969 0
      vertex -3.18712 0.770513 3
      vertex -3.18712 0.770513 0
    endloop
  endfacet
  facet normal -0.196116 0.980581 0
    outer loop
      vertex -3.64484 0.684547 3
      vertex -3.42273 0.728969 3
      vertex -3.64484 0.684547 0
    endloop
  endfacet
  facet normal -0.196116 0.980581 0
    outer loop
      vertex -3.64484 0.684547 0
      vertex -3.42273 0.728969 3
      vertex -3.42273 0.728969 0
    endloop
  endfacet
  facet normal -0.221237 0.97522 0
    outer loop
      vertex -3.85256 0.637424 3
      vertex -3.64484 0.684547 3
      vertex -3.85256 0.637424 0
    endloop
  endfacet
  facet normal -0.221237 0.97522 0
    outer loop
      vertex -3.85256 0.637424 0
      vertex -3.64484 0.684547 3
      vertex -3.64484 0.684547 0
    endloop
  endfacet
  facet normal -0.249672 0.96833 0
    outer loop
      vertex -4.04508 0.587785 3
      vertex -3.85256 0.637424 3
      vertex -4.04508 0.587785 0
    endloop
  endfacet
  facet normal -0.249672 0.96833 0
    outer loop
      vertex -4.04508 0.587785 0
      vertex -3.85256 0.637424 3
      vertex -3.85256 0.637424 0
    endloop
  endfacet
  facet normal -0.282317 0.959321 0
    outer loop
      vertex -4.22164 0.535827 3
      vertex -4.04508 0.587785 3
      vertex -4.22164 0.535827 0
    endloop
  endfacet
  facet normal -0.282317 0.959321 0
    outer loop
      vertex -4.22164 0.535827 0
      vertex -4.04508 0.587785 3
      vertex -4.04508 0.587785 0
    endloop
  endfacet
  facet normal -0.320355 0.947297 0
    outer loop
      vertex -4.38153 0.481754 3
      vertex -4.22164 0.535827 3
      vertex -4.38153 0.481754 0
    endloop
  endfacet
  facet normal -0.320355 0.947297 0
    outer loop
      vertex -4.38153 0.481754 0
      vertex -4.22164 0.535827 3
      vertex -4.22164 0.535827 0
    endloop
  endfacet
  facet normal -0.36539 0.930855 0
    outer loop
      vertex -4.52413 0.425779 3
      vertex -4.38153 0.481754 3
      vertex -4.52413 0.425779 0
    endloop
  endfacet
  facet normal -0.36539 0.930855 0
    outer loop
      vertex -4.52413 0.425779 0
      vertex -4.38153 0.481754 3
      vertex -4.38153 0.481754 0
    endloop
  endfacet
  facet normal -0.419534 0.907739 0
    outer loop
      vertex -4.64888 0.368125 3
      vertex -4.52413 0.425779 3
      vertex -4.64888 0.368125 0
    endloop
  endfacet
  facet normal -0.419534 0.907739 0
    outer loop
      vertex -4.64888 0.368125 0
      vertex -4.52413 0.425779 3
      vertex -4.52413 0.425779 0
    endloop
  endfacet
  facet normal -0.485606 0.874178 0
    outer loop
      vertex -4.75528 0.309017 3
      vertex -4.64888 0.368125 3
      vertex -4.75528 0.309017 0
    endloop
  endfacet
  facet normal -0.485606 0.874178 0
    outer loop
      vertex -4.75528 0.309017 0
      vertex -4.64888 0.368125 3
      vertex -4.64888 0.368125 0
    endloop
  endfacet
  facet normal -0.567048 0.823685 0
    outer loop
      vertex -4.84291 0.24869 3
      vertex -4.75528 0.309017 3
      vertex -4.84291 0.24869 0
    endloop
  endfacet
  facet normal -0.567048 0.823685 0
    outer loop
      vertex -4.84291 0.24869 0
      vertex -4.75528 0.309017 3
      vertex -4.75528 0.309017 0
    endloop
  endfacet
  facet normal -0.666805 0.745232 0
    outer loop
      vertex -4.91143 0.187381 3
      vertex -4.84291 0.24869 3
      vertex -4.91143 0.187381 0
    endloop
  endfacet
  facet normal -0.666805 0.745232 0
    outer loop
      vertex -4.91143 0.187381 0
      vertex -4.84291 0.24869 3
      vertex -4.84291 0.24869 0
    endloop
  endfacet
  facet normal -0.783931 0.620848 0
    outer loop
      vertex -4.96057 0.125333 3
      vertex -4.91143 0.187381 3
      vertex -4.96057 0.125333 0
    endloop
  endfacet
  facet normal -0.783931 0.620848 0
    outer loop
      vertex -4.96057 0.125333 0
      vertex -4.91143 0.187381 3
      vertex -4.91143 0.187381 0
    endloop
  endfacet
  facet normal -0.904102 0.427317 0
    outer loop
      vertex -4.99013 0.062791 3
      vertex -4.96057 0.125333 3
      vertex -4.99013 0.062791 0
    endloop
  endfacet
  facet normal -0.904102 0.427317 0
    outer loop
      vertex -4.99013 0.062791 0
      vertex -4.96057 0.125333 3
      vertex -4.96057 0.125333 0
    endloop
  endfacet
  facet normal 0 0 1
    outer loop
      vertex -5 0 3
      vertex -4.99013 -0.062791 3
      vertex -4.96057 -0.125333 3
    endloop
  endfacet
  facet normal 0 0 1
    outer loop
      vertex -4.84291 -0.24869 3
      vertex -5 0 3
      vertex -4.91143 -0.187381 3
    endloop
  endfacet
  facet normal 0 0 1
    outer loop
      vertex -4.91143 -0.187381 3
      vertex -5 0 3
      vertex -4.96057 -0.125333 3
    endloop
  endfacet
  facet normal 0 0 1
    outer loop
      vertex -4.75528 -0.309017 3
      vertex -5 0 3
      vertex -4.84291 -0.24869 3
    endloop
  endfacet
  facet normal 0 0 1
    outer loop
      vertex -4.64888 -0.368125 3
      vertex -5 0 3
      vertex -4.75528 -0.309017 3
    endloop
  endfacet
  facet normal 0 0 1
    outer loop
      vertex -4.52413 -0.425779 3
      vertex -5 0 3
      vertex -4.64888 -0.368125 3
    endloop
  endfacet
  facet normal 0 0 1
    outer loop
      vertex -4.38153 -0.481754 3
      vertex -5 0 3
      vertex -4.52413 -0.425779 3
    endloop
  endfacet
  facet normal 0 0 1
    outer loop
      vertex -4.22164 -0.535827 3
      vertex -5 0 3
      vertex -4.38153 -0.481754 3
    endloop
  endfacet
  facet normal 0 0 1
    outer loop
      vertex -4.04508 -0.587785 3
      vertex -5 0 3
      vertex -4.22164 -0.535827 3
    endloop
  endfacet
  facet normal 0 0 1
    outer loop
      vertex -3.85256 -0.637424 3
      vertex -5 0 3
      vertex -4.04508 -0.587785 3
    endloop
  endfacet
  facet normal 0 0 1
    outer loop
      vertex -3.64484 -0.684547 3
      vertex -5 0 3
      vertex -3.85256 -0.637424 3
    endloop
  endfacet
  facet normal 0 0 1
    outer loop
      vertex -3.42273 -0.728969 3
      vertex -5 0 3
      vertex -3.64484 -0.684547 3
    endloop
  endfacet
  facet normal 0 0 1
    outer loop
      vertex -3.18712 -0.770513 3
      vertex -5 0 3
      vertex -3.42273 -0.728969 3
    endloop
  endfacet
  facet normal 0 0 1
    outer loop
      vertex -2.93892 -0.809017 3
      vertex -5 0 3
      vertex -3.18712 -0.770513 3
    endloop
  endfacet
  facet normal 0 0 1
    outer loop
      vertex -2.67913 -0.844328 3
      vertex -5 0 3
      vertex -2.93892 -0.809017 3
    endloop
  endfacet
  facet normal 0 0 1
    outer loop
      vertex -2.40877 -0.876307 3
      vertex -5 0 3
      vertex -2.67913 -0.844328 3
    endloop
  endfacet
  facet normal 0 0 1
    outer loop
      vertex -2.12889 -0.904827 3
      vertex -5 0 3
      vertex -2.40877 -0.876307 3
    endloop
  endfacet
  facet normal 0 0 1
    outer loop
      vertex -1.84062 -0.929776 3
      vertex -5 0 3
      vertex -2.12889 -0.904827 3
    endloop
  endfacet
  facet normal 0 0 1
    outer loop
      vertex -1.54508 -0.951057 3
      vertex -5 0 3
      vertex -1.84062 -0.929776 3
    endloop
  endfacet
  facet normal 0 0 1
    outer loop
      vertex -1.24345 -0.968583 3
      vertex -5 0 3
      vertex -1.54508 -0.951057 3
    endloop
  endfacet
  facet normal 0 0 1
    outer loop
      vertex -0.936905 -0.982287 3
      vertex -5 0 3
      vertex -1.24345 -0.968583 3
    endloop
  endfacet
  facet normal 0 0 1
    outer loop
      vertex -0.626665 -0.992115 3
      vertex -5 0 3
      vertex -0.936905 -0.982287 3
    endloop
  endfacet
  facet normal 0 0 1
    outer loop
      vertex -0.313955 -0.998027 3
      vertex -5 0 3
      vertex -0.626665 -0.992115 3
    endloop
  endfacet
  facet normal 0 0 1
    outer loop
      vertex 0 -1 3
      vertex -5 0 3
      vertex -0.313955 -0.998027 3
    endloop
  endfacet
  facet normal 0 0 1
    outer loop
      vertex 0.313955 -0.998027 3
      vertex -5 0 3
      vertex 0 -1 3
    endloop
  endfacet
  facet normal 0 0 1
    outer loop
      vertex 0.626665 -0.992115 3
      vertex -5 0 3
      vertex 0.313955 -0.998027 3
    endloop
  endfacet
  facet normal 0 0 1
    outer loop
      vertex 0.936905 -0.982287 3
      vertex -5 0 3
      vertex 0.626665 -0.992115 3
    endloop
  endfacet
  facet normal 0 0 1
    outer loop
      vertex 1.24345 -0.968583 3
      vertex -5 0 3
      vertex 0.936905 -0.982287 3
    endloop
  endfacet
  facet normal 0 0 1
    outer loop
      vertex 1.54508 -0.951057 3
      vertex -5 0 3
      vertex 1.24345 -0.968583 3
    endloop
  endfacet
  facet normal 0 0 1
    outer loop
      vertex 1.84062 -0.929776 3
      vertex -5 0 3
      vertex 1.54508 -0.951057 3
    endloop
  endfacet
  facet normal 0 0 1
    outer loop
      vertex 2.12889 -0.904827 3
      vertex -5 0 3
      vertex 1.84062 -0.929776 3
    endloop
  endfacet
  facet normal 0 0 1
    outer loop
      vertex 2.40877 -0.876307 3
      vertex -5 0 3
      vertex 2.12889 -0.904827 3
    endloop
  endfacet
  facet normal 0 0 1
    outer loop
      vertex 2.67913 -0.844328 3
      vertex -5 0 3
      vertex 2.40877 -0.876307 3
    endloop
  endfacet
  facet normal 0 0 1
    outer loop
      vertex 2.93892 -0.809017 3
      vertex -5 0 3
      vertex 2.67913 -0.844328 3
    endloop
  endfacet
  facet normal 0 0 1
    outer loop
      vertex 3.18712 -0.770513 3
      vertex -5 0 3
      vertex 2.93892 -0.809017 3
    endloop
  endfacet
  facet normal 0 0 1
    outer loop
      vertex 3.42273 -0.728969 3
      vertex -5 0 3
      vertex 3.18712 -0.770513 3
    endloop
  endfacet
  facet normal 0 0 1
    outer loop
      vertex 3.64484 -0.684547 3
      vertex -5 0 3
      vertex 3.42273 -0.728969 3
    endloop
  endfacet
  facet normal 0 0 1
    outer loop
      vertex 3.85256 -0.637424 3
      vertex -5 0 3
      vertex 3.64484 -0.684547 3
    endloop
  endfacet
  facet normal 0 0 1
    outer loop
      vertex 4.04508 -0.587785 3
      vertex -5 0 3
      vertex 3.85256 -0.637424 3
    endloop
  endfacet
  facet normal 0 0 1
    outer loop
      vertex 4.22164 -0.535827 3
      vertex -5 0 3
      vertex 4.04508 -0.587785 3
    endloop
  endfacet
  facet normal 0 0 1
    outer loop
      vertex 4.38153 -0.481754 3
      vertex -5 0 3
      vertex 4.22164 -0.535827 3
    endloop
  endfacet
  facet normal 0 0 1
    outer loop
      vertex 4.52413 -0.425779 3
      vertex -5 0 3
      vertex 4.38153 -0.481754 3
    endloop
  endfacet
  facet normal 0 0 1
    outer loop
      vertex 4.64888 -0.368125 3
      vertex -5 0 3
      vertex 4.52413 -0.425779 3
    endloop
  endfacet
  facet normal 0 0 1
    outer loop
      vertex 4.75528 -0.309017 3
      vertex -5 0 3
      vertex 4.64888 -0.368125 3
    endloop
  endfacet
  facet normal 0 0 1
    outer loop
      vertex 4.84291 -0.24869 3
      vertex -5 0 3
      vertex 4.75528 -0.309017 3
    endloop
  endfacet
  facet normal 0 0 1
    outer loop
      vertex 4.91143 -0.187381 3
      vertex -5 0 3
      vertex 4.84291 -0.24869 3
    endloop
  endfacet
  facet normal 0 0 1
    outer loop
      vertex 4.96057 -0.125333 3
      vertex -5 0 3
      vertex 4.91143 -0.187381 3
    endloop
  endfacet
  facet normal 0 0 1
    outer loop
      vertex 4.99013 -0.062791 3
      vertex -5 0 3
      vertex 4.96057 -0.125333 3
    endloop
  endfacet
  facet normal 0 0 1
    outer loop
      vertex 5 0 3
      vertex -5 0 3
      vertex 4.99013 -0.062791 3
    endloop
  endfacet
  facet normal 0 0 1
    outer loop
      vertex 4.99013 0.062791 3
      vertex -5 0 3
      vertex 5 0 3
    endloop
  endfacet
  facet normal 0 0 1
    outer loop
      vertex 4.96057 0.125333 3
      vertex -5 0 3
      vertex 4.99013 0.062791 3
    endloop
  endfacet
  facet normal 0 0 1
    outer loop
      vertex 4.91143 0.187381 3
      vertex -5 0 3
      vertex 4.96057 0.125333 3
    endloop
  endfacet
  facet normal 0 0 1
    outer loop
      vertex 4.84291 0.24869 3
      vertex -5 0 3
      vertex 4.91143 0.187381 3
    endloop
  endfacet
  facet normal 0 0 1
    outer loop
      vertex 4.75528 0.309017 3
      vertex -5 0 3
      vertex 4.84291 0.24869 3
    endloop
  endfacet
  facet normal 0 0 1
    outer loop
      vertex 4.64888 0.368125 3
      vertex -5 0 3
      vertex 4.75528 0.309017 3
    endloop
  endfacet
  facet normal 0 0 1
    outer loop
      vertex 4.52413 0.425779 3
      vertex -5 0 3
      vertex 4.64888 0.368125 3
    endloop
  endfacet
  facet normal 0 0 1
    outer loop
      vertex 4.38153 0.481754 3
      vertex -5 0 3
      vertex 4.52413 0.425779 3
    endloop
  endfacet
  facet normal 0 0 1
    outer loop
      vertex 4.22164 0.535827 3
      vertex -5 0 3
      vertex 4.38153 0.481754 3
    endloop
  endfacet
  facet normal 0 0 1
    outer loop
      vertex 4.04508 0.587785 3
      vertex -5 0 3
      vertex 4.22164 0.535827 3
    endloop
  endfacet
  facet normal 0 0 1
    outer loop
      vertex 3.85256 0.637424 3
      vertex -5 0 3
      vertex 4.04508 0.587785 3
    endloop
  endfacet
  facet normal 0 0 1
    outer loop
      vertex 3.64484 0.684547 3
      vertex -5 0 3
      vertex 3.85256 0.637424 3
    endloop
  endfacet
  facet normal 0 0 1
    outer loop
      vertex 3.42273 0.728969 3
      vertex -5 0 3
      vertex 3.64484 0.684547 3
    endloop
  endfacet
  facet normal 0 0 1
    outer loop
      vertex 3.18712 0.770513 3
      vertex -5 0 3
      vertex 3.42273 0.728969 3
    endloop
  endfacet
  facet normal 0 0 1
    outer loop
      vertex 2.93892 0.809017 3
      vertex -5 0 3
      vertex 3.18712 0.770513 3
    endloop
  endfacet
  facet normal 0 0 1
    outer loop
      vertex 2.67913 0.844328 3
      vertex -5 0 3
      vertex 2.93892 0.809017 3
    endloop
  endfacet
  facet normal 0 0 1
    outer loop
      vertex 2.40877 0.876307 3
      vertex -5 0 3
      vertex 2.67913 0.844328 3
    endloop
  endfacet
  facet normal 0 0 1
    outer loop
      vertex 2.12889 0.904827 3
      vertex -5 0 3
      vertex 2.40877 0.876307 3
    endloop
  endfacet
  facet normal 0 0 1
    outer loop
      vertex 1.84062 0.929776 3
      vertex -5 0 3
      vertex 2.12889 0.904827 3
    endloop
  endfacet
  facet normal 0 0 1
    outer loop
      vertex 1.54508 0.951057 3
      vertex -5 0 3
      vertex 1.84062 0.929776 3
    endloop
  endfacet
  facet normal 0 0 1
    outer loop
      vertex 1.24345 0.968583 3
      vertex -5 0 3
      vertex 1.54508 0.951057 3
    endloop
  endfacet
  facet normal 0 0 1
    outer loop
      vertex 0.936905 0.982287 3
      vertex -5 0 3
      vertex 1.24345 0.968583 3
    endloop
  endfacet
  facet normal 0 0 1
    outer loop
      vertex 0.626665 0.992115 3
      vertex -5 0 3
      vertex 0.936905 0.982287 3
    endloop
  endfacet
  facet normal 0 0 1
    outer loop
      vertex 0.313955 0.998027 3
      vertex -5 0 3
      vertex 0.626665 0.992115 3
    endloop
  endfacet
  facet normal 0 0 1
    outer loop
      vertex 0 1 3
      vertex -5 0 3
      vertex 0.313955 0.998027 3
    endloop
  endfacet
  facet normal 0 0 1
    outer loop
      vertex -0.313955 0.998027 3
      vertex -5 0 3
      vertex 0 1 3
    endloop
  endfacet
  facet normal 0 0 1
    outer loop
      vertex -0.626665 0.992115 3
      vertex -5 0 3
      vertex -0.313955 0.998027 3
    endloop
  endfacet
  facet normal 0 0 1
    outer loop
      vertex -0.936905 0.982287 3
      vertex -5 0 3
      vertex -0.626665 0.992115 3
    endloop
  endfacet
  facet normal 0 0 1
    outer loop
      vertex -1.24345 0.968583 3
      vertex -5 0 3
      vertex -0.936905 0.982287 3
    endloop
  endfacet
  facet normal 0 0 1
    outer loop
      vertex -1.54508 0.951057 3
      vertex -5 0 3
      vertex -1.24345 0.968583 3
    endloop
  endfacet
  facet normal 0 0 1
    outer loop
      vertex -1.84062 0.929776 3
      vertex -5 0 3
      vertex -1.54508 0.951057 3
    endloop
  endfacet
  facet normal 0 0 1
    outer loop
      vertex -2.12889 0.904827 3
      vertex -5 0 3
      vertex -1.84062 0.929776 3
    endloop
  endfacet
  facet normal 0 0 1
    outer loop
      vertex -2.40877 0.876307 3
      vertex -5 0 3
      vertex -2.12889 0.904827 3
    endloop
  endfacet
  facet normal 0 0 1
    outer loop
      vertex -2.67913 0.844328 3
      vertex -5 0 3
      vertex -2.40877 0.876307 3
    endloop
  endfacet
  facet normal 0 0 1
    outer loop
      vertex -2.93892 0.809017 3
      vertex -5 0 3
      vertex -2.67913 0.844328 3
    endloop
  endfacet
  facet normal 0 0 1
    outer loop
      vertex -3.18712 0.770513 3
      vertex -5 0 3
      vertex -2.93892 0.809017 3
    endloop
  endfacet
  facet normal 0 0 1
    outer loop
      vertex -3.42273 0.728969 3
      vertex -5 0 3
      vertex -3.18712 0.770513 3
    endloop
  endfacet
  facet normal 0 0 1
    outer loop
      vertex -3.64484 0.684547 3
      vertex -5 0 3
      vertex -3.42273 0.728969 3
    endloop
  endfacet
  facet normal 0 0 1
    outer loop
      vertex -3.85256 0.637424 3
      vertex -5 0 3
      vertex -3.64484 0.684547 3
    endloop
  endfacet
  facet normal 0 0 1
    outer loop
      vertex -4.04508 0.587785 3
      vertex -5 0 3
      vertex -3.85256 0.637424 3
    endloop
  endfacet
  facet normal 0 0 1
    outer loop
      vertex -4.22164 0.535827 3
      vertex -5 0 3
      vertex -4.04508 0.587785 3
    endloop
  endfacet
  facet normal 0 0 1
    outer loop
      vertex -4.38153 0.481754 3
      vertex -5 0 3
      vertex -4.22164 0.535827 3
    endloop
  endfacet
  facet normal 0 0 1
    outer loop
      vertex -4.52413 0.425779 3
      vertex -5 0 3
      vertex -4.38153 0.481754 3
    endloop
  endfacet
  facet normal 0 0 1
    outer loop
      vertex -4.64888 0.368125 3
      vertex -5 0 3
      vertex -4.52413 0.425779 3
    endloop
  endfacet
  facet normal 0 0 1
    outer loop
      vertex -4.75528 0.309017 3
      vertex -5 0 3
      vertex -4.64888 0.368125 3
    endloop
  endfacet
  facet normal 0 0 1
    outer loop
      vertex -4.84291 0.24869 3
      vertex -5 0 3
      vertex -4.75528 0.309017 3
    endloop
  endfacet
  facet normal 0 0 1
    outer loop
      vertex -4.91143 0.187381 3
      vertex -5 0 3
      vertex -4.84291 0.24869 3
    endloop
  endfacet
  facet normal 0 0 1
    outer loop
      vertex -4.96057 0.125333 3
      vertex -5 0 3
      vertex -4.91143 0.187381 3
    endloop
  endfacet
  facet normal 0 0 1
    outer loop
      vertex -4.99013 0.062791 3
      vertex -5 0 3
      vertex -4.96057 0.125333 3
    endloop
  endfacet
endsolid OpenSCAD_Model
