solid OpenSCAD_Model
  facet normal 0 0 -1
    outer loop
      vertex -2.99408 0.188372 0
      vertex -2.97634 0.376 0
      vertex -3 0 0
    endloop
  endfacet
  facet normal 0 0 -1
    outer loop
      vertex -3 0 0
      vertex -2.97634 0.376 0
      vertex -2.94686 0.562144 0
    endloop
  endfacet
  facet normal 0 0 -1
    outer loop
      vertex -3 0 0
      vertex -2.94686 0.562144 0
      vertex -2.90575 0.74607 0
    endloop
  endfacet
  facet normal 0 0 -1
    outer loop
      vertex -3 0 0
      vertex -2.90575 0.74607 0
      vertex -2.85317 0.927051 0
    endloop
  endfacet
  facet normal 0 0 -1
    outer loop
      vertex -3 0 0
      vertex -2.85317 0.927051 0
      vertex -2.78933 1.10437 0
    endloop
  endfacet
  facet normal 0 0 -1
    outer loop
      vertex -3 0 0
      vertex -2.78933 1.10437 0
      vertex -2.71448 1.27734 0
    endloop
  endfacet
  facet normal 0 0 -1
    outer loop
      vertex -3 0 0
      vertex -2.71448 1.27734 0
      vertex -2.62892 1.44526 0
    endloop
  endfacet
  facet normal 0 0 -1
    outer loop
      vertex -3 0 0
      vertex -2.62892 1.44526 0
      vertex -2.53298 1.60748 0
    endloop
  endfacet
  facet normal 0 0 -1
    outer loop
      vertex -3 0 0
      vertex -2.53298 1.60748 0
      vertex -2.42705 1.76336 0
    endloop
  endfacet
  facet normal 0 0 -1
    outer loop
      vertex -3 0 0
      vertex -2.42705 1.76336 0
      vertex -2.31154 1.91227 0
    endloop
  endfacet
  facet normal 0 0 -1
    outer loop
      vertex -3 0 0
      vertex -2.31154 1.91227 0
      vertex -2.18691 2.05364 0
    endloop
  endfacet
  facet normal 0 0 -1
    outer loop
      vertex -3 0 0
      vertex -2.18691 2.05364 0
      vertex -2.05364 2.18691 0
    endloop
  endfacet
  facet normal 0 0 -1
    outer loop
      vertex -3 0 0
      vertex -2.05364 2.18691 0
      vertex -1.91227 2.31154 0
    endloop
  endfacet
  facet normal 0 0 -1
    outer loop
      vertex -3 0 0
      vertex -1.91227 2.31154 0
      vertex -1.76336 2.42705 0
    endloop
  endfacet
  facet normal 0 0 -1
    outer loop
      vertex -3 0 0
      vertex -1.76336 2.42705 0
      vertex -1.60748 2.53298 0
    endloop
  endfacet
  facet normal 0 0 -1
    outer loop
      vertex -3 0 0
      vertex -1.60748 2.53298 0
      vertex -1.44526 2.62892 0
    endloop
  endfacet
  facet normal 0 0 -1
    outer loop
      vertex -3 0 0
      vertex -1.44526 2.62892 0
      vertex -1.27734 2.71448 0
    endloop
  endfacet
  facet normal 0 0 -1
    outer loop
      vertex -3 0 0
      vertex -1.27734 2.71448 0
      vertex -1.10437 2.78933 0
    endloop
  endfacet
  facet normal 0 0 -1
    outer loop
      vertex -3 0 0
      vertex -1.10437 2.78933 0
      vertex -0.927051 2.85317 0
    endloop
  endfacet
  facet normal 0 0 -1
    outer loop
      vertex -3 0 0
      vertex -0.927051 2.85317 0
      vertex -0.74607 2.90575 0
    endloop
  endfacet
  facet normal 0 0 -1
    outer loop
      vertex -3 0 0
      vertex -0.74607 2.90575 0
      vertex -0.562144 2.94686 0
    endloop
  endfacet
  facet normal 0 0 -1
    outer loop
      vertex -3 0 0
      vertex -0.562144 2.94686 0
      vertex -0.376 2.97634 0
    endloop
  endfacet
  facet normal 0 0 -1
    outer loop
      vertex -3 0 0
      vertex -0.376 2.97634 0
      vertex -0.188372 2.99408 0
    endloop
  endfacet
  facet normal 0 0 -1
    outer loop
      vertex -3 0 0
      vertex -0.188372 2.99408 0
      vertex 0 3 0
    endloop
  endfacet
  facet normal 0 0 -1
    outer loop
      vertex -3 0 0
      vertex 0 3 0
      vertex 0.188372 2.99408 0
    endloop
  endfacet
  facet normal 0 0 -1
    outer loop
      vertex -3 0 0
      vertex 0.188372 2.99408 0
      vertex 0.376 2.97634 0
    endloop
  endfacet
  facet normal 0 0 -1
    outer loop
      vertex -3 0 0
      vertex 0.376 2.97634 0
      vertex 0.562144 2.94686 0
    endloop
  endfacet
  facet normal 0 0 -1
    outer loop
      vertex -3 0 0
      vertex 0.562144 2.94686 0
      vertex 0.74607 2.90575 0
    endloop
  endfacet
  facet normal 0 0 -1
    outer loop
      vertex -3 0 0
      vertex 0.74607 2.90575 0
      vertex 0.927051 2.85317 0
    endloop
  endfacet
  facet normal 0 0 -1
    outer loop
      vertex -3 0 0
      vertex 0.927051 2.85317 0
      vertex 1.10437 2.78933 0
    endloop
  endfacet
  facet normal 0 0 -1
    outer loop
      vertex -3 0 0
      vertex 1.10437 2.78933 0
      vertex 1.27734 2.71448 0
    endloop
  endfacet
  facet normal 0 0 -1
    outer loop
      vertex -3 0 0
      vertex 1.27734 2.71448 0
      vertex 1.44526 2.62892 0
    endloop
  endfacet
  facet normal 0 0 -1
    outer loop
      vertex -3 0 0
      vertex 1.44526 2.62892 0
      vertex 1.60748 2.53298 0
    endloop
  endfacet
  facet normal 0 0 -1
    outer loop
      vertex -3 0 0
      vertex 1.60748 2.53298 0
      vertex 1.76336 2.42705 0
    endloop
  endfacet
  facet normal 0 0 -1
    outer loop
      vertex -3 0 0
      vertex 1.76336 2.42705 0
      vertex 1.91227 2.31154 0
    endloop
  endfacet
  facet normal 0 0 -1
    outer loop
      vertex -3 0 0
      vertex 1.91227 2.31154 0
      vertex 2.05364 2.18691 0
    endloop
  endfacet
  facet normal 0 0 -1
    outer loop
      vertex -3 0 0
      vertex 2.05364 2.18691 0
      vertex 2.18691 2.05364 0
    endloop
  endfacet
  facet normal 0 0 -1
    outer loop
      vertex -3 0 0
      vertex 2.18691 2.05364 0
      vertex 2.31154 1.91227 0
    endloop
  endfacet
  facet normal 0 0 -1
    outer loop
      vertex -3 0 0
      vertex 2.31154 1.91227 0
      vertex 2.42705 1.76336 0
    endloop
  endfacet
  facet normal 0 0 -1
    outer loop
      vertex -3 0 0
      vertex 2.42705 1.76336 0
      vertex 2.53298 1.60748 0
    endloop
  endfacet
  facet normal 0 0 -1
    outer loop
      vertex -3 0 0
      vertex 2.53298 1.60748 0
      vertex 2.62892 1.44526 0
    endloop
  endfacet
  facet normal 0 0 -1
    outer loop
      vertex -3 0 0
      vertex 2.62892 1.44526 0
      vertex 2.71448 1.27734 0
    endloop
  endfacet
  facet normal 0 0 -1
    outer loop
      vertex -3 0 0
      vertex 2.71448 1.27734 0
      vertex 2.78933 1.10437 0
    endloop
  endfacet
  facet normal 0 0 -1
    outer loop
      vertex -3 0 0
      vertex 2.78933 1.10437 0
      vertex 2.85317 0.927051 0
    endloop
  endfacet
  facet normal 0 0 -1
    outer loop
      vertex -3 0 0
      vertex 2.85317 0.927051 0
      vertex 2.90575 0.74607 0
    endloop
  endfacet
  facet normal 0 0 -1
    outer loop
      vertex -3 0 0
      vertex 2.90575 0.74607 0
      vertex 2.94686 0.562144 0
    endloop
  endfacet
  facet normal 0 0 -1
    outer loop
      vertex -3 0 0
      vertex 2.94686 0.562144 0
      vertex 2.97634 0.376 0
    endloop
  endfacet
  facet normal 0 0 -1
    outer loop
      vertex -3 0 0
      vertex 2.97634 0.376 0
      vertex 2.99408 0.188372 0
    endloop
  endfacet
  facet normal 0 0 -1
    outer loop
      vertex -3 0 0
      vertex 2.99408 0.188372 0
      vertex 3 0 0
    endloop
  endfacet
  facet normal 0 0 -1
    outer loop
      vertex -3 0 0
      vertex 3 0 0
      vertex 2.99408 -0.188372 0
    endloop
  endfacet
  facet normal 0 0 -1
    outer loop
      vertex -3 0 0
      vertex 2.99408 -0.188372 0
      vertex 2.97634 -0.376 0
    endloop
  endfacet
  facet normal 0 0 -1
    outer loop
      vertex -3 0 0
      vertex 2.97634 -0.376 0
      vertex 2.94686 -0.562144 0
    endloop
  endfacet
  facet normal 0 0 -1
    outer loop
      vertex -3 0 0
      vertex 2.94686 -0.562144 0
      vertex 2.90575 -0.74607 0
    endloop
  endfacet
  facet normal 0 0 -1
    outer loop
      vertex -3 0 0
      vertex 2.90575 -0.74607 0
      vertex 2.85317 -0.927051 0
    endloop
  endfacet
  facet normal 0 0 -1
    outer loop
      vertex -3 0 0
      vertex 2.85317 -0.927051 0
      vertex 2.78933 -1.10437 0
    endloop
  endfacet
  facet normal 0 0 -1
    outer loop
      vertex -3 0 0
      vertex 2.78933 -1.10437 0
      vertex 2.71448 -1.27734 0
    endloop
  endfacet
  facet normal 0 0 -1
    outer loop
      vertex -3 0 0
      vertex 2.71448 -1.27734 0
      vertex 2.62892 -1.44526 0
    endloop
  endfacet
  facet normal 0 0 -1
    outer loop
      vertex -3 0 0
      vertex 2.62892 -1.44526 0
      vertex 2.53298 -1.60748 0
    endloop
  endfacet
  facet normal 0 0 -1
    outer loop
      vertex -3 0 0
      vertex 2.53298 -1.60748 0
      vertex 2.42705 -1.76336 0
    endloop
  endfacet
  facet normal 0 0 -1
    outer loop
      vertex -3 0 0
      vertex 2.42705 -1.76336 0
      vertex 2.31154 -1.91227 0
    endloop
  endfacet
  facet normal 0 0 -1
    outer loop
      vertex -3 0 0
      vertex 2.31154 -1.91227 0
      vertex 2.18691 -2.05364 0
    endloop
  endfacet
  facet normal 0 0 -1
    outer loop
      vertex -3 0 0
      vertex 2.18691 -2.05364 0
      vertex 2.05364 -2.18691 0
    endloop
  endfacet
  facet normal 0 0 -1
    outer loop
      vertex -3 0 0
      vertex 2.05364 -2.18691 0
      vertex 1.91227 -2.31154 0
    endloop
  endfacet
  facet normal 0 0 -1
    outer loop
      vertex -3 0 0
      vertex 1.91227 -2.31154 0
      vertex 1.76336 -2.42705 0
    endloop
  endfacet
  facet normal 0 0 -1
    outer loop
      vertex -3 0 0
      vertex 1.76336 -2.42705 0
      vertex 1.60748 -2.53298 0
    endloop
  endfacet
  facet normal 0 0 -1
    outer loop
      vertex -3 0 0
      vertex 1.60748 -2.53298 0
      vertex 1.44526 -2.62892 0
    endloop
  endfacet
  facet normal 0 0 -1
    outer loop
      vertex -3 0 0
      vertex 1.44526 -2.62892 0
      vertex 1.27734 -2.71448 0
    endloop
  endfacet
  facet normal 0 0 -1
    outer loop
      vertex -3 0 0
      vertex 1.27734 -2.71448 0
      vertex 1.10437 -2.78933 0
    endloop
  endfacet
  facet normal 0 0 -1
    outer loop
      vertex -3 0 0
      vertex 1.10437 -2.78933 0
      vertex 0.927051 -2.85317 0
    endloop
  endfacet
  facet normal 0 0 -1
    outer loop
      vertex -3 0 0
      vertex 0.927051 -2.85317 0
      vertex 0.74607 -2.90575 0
    endloop
  endfacet
  facet normal 0 0 -1
    outer loop
      vertex -3 0 0
      vertex 0.74607 -2.90575 0
      vertex 0.562144 -2.94686 0
    endloop
  endfacet
  facet normal 0 0 -1
    outer loop
      vertex -3 0 0
      vertex 0.562144 -2.94686 0
      vertex 0.376 -2.97634 0
    endloop
  endfacet
  facet normal 0 0 -1
    outer loop
      vertex -3 0 0
      vertex 0.376 -2.97634 0
      vertex 0.188372 -2.99408 0
    endloop
  endfacet
  facet normal 0 0 -1
    outer loop
      vertex -3 0 0
      vertex 0.188372 -2.99408 0
      vertex 0 -3 0
    endloop
  endfacet
  facet normal 0 0 -1
    outer loop
      vertex -3 0 0
      vertex 0 -3 0
      vertex -0.188372 -2.99408 0
    endloop
  endfacet
  facet normal 0 0 -1
    outer loop
      vertex -3 0 0
      vertex -0.188372 -2.99408 0
      vertex -0.376 -2.97634 0
    endloop
  endfacet
  facet normal 0 0 -1
    outer loop
      vertex -3 0 0
      vertex -0.376 -2.97634 0
      vertex -0.562144 -2.94686 0
    endloop
  endfacet
  facet normal 0 0 -1
    outer loop
      vertex -3 0 0
      vertex -0.562144 -2.94686 0
      vertex -0.74607 -2.90575 0
    endloop
  endfacet
  facet normal 0 0 -1
    outer loop
      vertex -3 0 0
      vertex -0.74607 -2.90575 0
      vertex -0.927051 -2.85317 0
    endloop
  endfacet
  facet normal 0 0 -1
    outer loop
      vertex -3 0 0
      vertex -0.927051 -2.85317 0
      vertex -1.10437 -2.78933 0
    endloop
  endfacet
  facet normal 0 0 -1
    outer loop
      vertex -3 0 0
      vertex -1.10437 -2.78933 0
      vertex -1.27734 -2.71448 0
    endloop
  endfacet
  facet normal 0 0 -1
    outer loop
      vertex -3 0 0
      vertex -1.27734 -2.71448 0
      vertex -1.44526 -2.62892 0
    endloop
  endfacet
  facet normal 0 0 -1
    outer loop
      vertex -3 0 0
      vertex -1.44526 -2.62892 0
      vertex -1.60748 -2.53298 0
    endloop
  endfacet
  facet normal 0 0 -1
    outer loop
      vertex -3 0 0
      vertex -1.60748 -2.53298 0
      vertex -1.76336 -2.42705 0
    endloop
  endfacet
  facet normal 0 0 -1
    outer loop
      vertex -3 0 0
      vertex -1.76336 -2.42705 0
      vertex -1.91227 -2.31154 0
    endloop
  endfacet
  facet normal 0 0 -1
    outer loop
      vertex -3 0 0
      vertex -1.91227 -2.31154 0
      vertex -2.05364 -2.18691 0
    endloop
  endfacet
  facet normal 0 0 -1
    outer loop
      vertex -3 0 0
      vertex -2.05364 -2.18691 0
      vertex -2.18691 -2.05364 0
    endloop
  endfacet
  facet normal 0 0 -1
    outer loop
      vertex -3 0 0
      vertex -2.18691 -2.05364 0
      vertex -2.31154 -1.91227 0
    endloop
  endfacet
  facet normal 0 0 -1
    outer loop
      vertex -3 0 0
      vertex -2.31154 -1.91227 0
      vertex -2.42705 -1.76336 0
    endloop
  endfacet
  facet normal 0 0 -1
    outer loop
      vertex -3 0 0
      vertex -2.42705 -1.76336 0
      vertex -2.53298 -1.60748 0
    endloop
  endfacet
  facet normal 0 0 -1
    outer loop
      vertex -3 0 0
      vertex -2.53298 -1.60748 0
      vertex -2.62892 -1.44526 0
    endloop
  endfacet
  facet normal 0 0 -1
    outer loop
      vertex -3 0 0
      vertex -2.62892 -1.44526 0
      vertex -2.71448 -1.27734 0
    endloop
  endfacet
  facet normal 0 0 -1
    outer loop
      vertex -3 0 0
      vertex -2.71448 -1.27734 0
      vertex -2.78933 -1.10437 0
    endloop
  endfacet
  facet normal 0 0 -1
    outer loop
      vertex -3 0 0
      vertex -2.78933 -1.10437 0
      vertex -2.85317 -0.927051 0
    endloop
  endfacet
  facet normal 0 0 -1
    outer loop
      vertex -3 0 0
      vertex -2.85317 -0.927051 0
      vertex -2.90575 -0.74607 0
    endloop
  endfacet
  facet normal 0 0 -1
    outer loop
      vertex -3 0 0
      vertex -2.90575 -0.74607 0
      vertex -2.94686 -0.562144 0
    endloop
  endfacet
  facet normal 0 0 -1
    outer loop
      vertex -3 0 0
      vertex -2.94686 -0.562144 0
      vertex -2.97634 -0.376 0
    endloop
  endfacet
  facet normal 0 0 -1
    outer loop
      vertex -3 0 0
      vertex -2.97634 -0.376 0
      vertex -2.99408 -0.188372 0
    endloop
  endfacet
  facet normal 0.999507 0.0314117 0
    outer loop
      vertex 2.99408 0.188372 0
      vertex 2.99408 0.188372 10
      vertex 3 0 10
    endloop
  endfacet
  facet normal 0.999507 0.0314117 0
    outer loop
      vertex 3 0 0
      vertex 2.99408 0.188372 0
      vertex 3 0 10
    endloop
  endfacet
  facet normal 0.995562 0.094108 0
    outer loop
      vertex 2.97634 0.376 0
      vertex 2.97634 0.376 10
      vertex 2.99408 0.188372 10
    endloop
  endfacet
  facet normal 0.995562 0.094108 0
    outer loop
      vertex 2.99408 0.188372 0
      vertex 2.97634 0.376 0
      vertex 2.99408 0.188372 10
    endloop
  endfacet
  facet normal -0.999507 0.0314117 0
    outer loop
      vertex -3 0 10
      vertex -2.99408 0.188372 10
      vertex -3 0 0
    endloop
  endfacet
  facet normal -0.999507 0.0314117 0
    outer loop
      vertex -3 0 0
      vertex -2.99408 0.188372 10
      vertex -2.99408 0.188372 0
    endloop
  endfacet
  facet normal -0.999507 -0.0314117 0
    outer loop
      vertex -2.99408 -0.188372 0
      vertex -2.99408 -0.188372 10
      vertex -3 0 0
    endloop
  endfacet
  facet normal -0.999507 -0.0314117 0
    outer loop
      vertex -3 0 0
      vertex -2.99408 -0.188372 10
      vertex -3 0 10
    endloop
  endfacet
  facet normal -0.995562 -0.094108 0
    outer loop
      vertex -2.97634 -0.376 0
      vertex -2.97634 -0.376 10
      vertex -2.99408 -0.188372 0
    endloop
  endfacet
  facet normal -0.995562 -0.094108 0
    outer loop
      vertex -2.99408 -0.188372 0
      vertex -2.97634 -0.376 10
      vertex -2.99408 -0.188372 10
    endloop
  endfacet
  facet normal -0.987689 -0.156433 0
    outer loop
      vertex -2.94686 -0.562144 0
      vertex -2.94686 -0.562144 10
      vertex -2.97634 -0.376 0
    endloop
  endfacet
  facet normal -0.987689 -0.156433 0
    outer loop
      vertex -2.97634 -0.376 0
      vertex -2.94686 -0.562144 10
      vertex -2.97634 -0.376 10
    endloop
  endfacet
  facet normal -0.975916 -0.218147 0
    outer loop
      vertex -2.90575 -0.74607 0
      vertex -2.90575 -0.74607 10
      vertex -2.94686 -0.562144 0
    endloop
  endfacet
  facet normal -0.975916 -0.218147 0
    outer loop
      vertex -2.94686 -0.562144 0
      vertex -2.90575 -0.74607 10
      vertex -2.94686 -0.562144 10
    endloop
  endfacet
  facet normal -0.960295 -0.278987 0
    outer loop
      vertex -2.85317 -0.927051 0
      vertex -2.85317 -0.927051 10
      vertex -2.90575 -0.74607 0
    endloop
  endfacet
  facet normal -0.960295 -0.278987 0
    outer loop
      vertex -2.90575 -0.74607 0
      vertex -2.85317 -0.927051 10
      vertex -2.90575 -0.74607 10
    endloop
  endfacet
  facet normal -0.940879 -0.338742 0
    outer loop
      vertex -2.78933 -1.10437 0
      vertex -2.78933 -1.10437 10
      vertex -2.85317 -0.927051 0
    endloop
  endfacet
  facet normal -0.940879 -0.338742 0
    outer loop
      vertex -2.85317 -0.927051 0
      vertex -2.78933 -1.10437 10
      vertex -2.85317 -0.927051 10
    endloop
  endfacet
  facet normal -0.917755 -0.397147 0
    outer loop
      vertex -2.71448 -1.27734 0
      vertex -2.71448 -1.27734 10
      vertex -2.78933 -1.10437 0
    endloop
  endfacet
  facet normal -0.917755 -0.397147 0
    outer loop
      vertex -2.78933 -1.10437 0
      vertex -2.71448 -1.27734 10
      vertex -2.78933 -1.10437 10
    endloop
  endfacet
  facet normal -0.891007 -0.45399 0
    outer loop
      vertex -2.62892 -1.44526 0
      vertex -2.62892 -1.44526 10
      vertex -2.71448 -1.27734 0
    endloop
  endfacet
  facet normal -0.891007 -0.45399 0
    outer loop
      vertex -2.71448 -1.27734 0
      vertex -2.62892 -1.44526 10
      vertex -2.71448 -1.27734 10
    endloop
  endfacet
  facet normal -0.860742 -0.509041 0
    outer loop
      vertex -2.53298 -1.60748 0
      vertex -2.53298 -1.60748 10
      vertex -2.62892 -1.44526 0
    endloop
  endfacet
  facet normal -0.860742 -0.509041 0
    outer loop
      vertex -2.62892 -1.44526 0
      vertex -2.53298 -1.60748 10
      vertex -2.62892 -1.44526 10
    endloop
  endfacet
  facet normal -0.827081 -0.562083 0
    outer loop
      vertex -2.42705 -1.76336 0
      vertex -2.42705 -1.76336 10
      vertex -2.53298 -1.60748 0
    endloop
  endfacet
  facet normal -0.827081 -0.562083 0
    outer loop
      vertex -2.53298 -1.60748 0
      vertex -2.42705 -1.76336 10
      vertex -2.53298 -1.60748 10
    endloop
  endfacet
  facet normal -0.790155 -0.612907 0
    outer loop
      vertex -2.31154 -1.91227 0
      vertex -2.31154 -1.91227 10
      vertex -2.42705 -1.76336 0
    endloop
  endfacet
  facet normal -0.790155 -0.612907 0
    outer loop
      vertex -2.42705 -1.76336 0
      vertex -2.31154 -1.91227 10
      vertex -2.42705 -1.76336 10
    endloop
  endfacet
  facet normal -0.75011 -0.661313 0
    outer loop
      vertex -2.18691 -2.05364 0
      vertex -2.18691 -2.05364 10
      vertex -2.31154 -1.91227 0
    endloop
  endfacet
  facet normal -0.75011 -0.661313 0
    outer loop
      vertex -2.31154 -1.91227 0
      vertex -2.18691 -2.05364 10
      vertex -2.31154 -1.91227 10
    endloop
  endfacet
  facet normal -0.707107 -0.707107 0
    outer loop
      vertex -2.18691 -2.05364 0
      vertex -2.05364 -2.18691 0
      vertex -2.05364 -2.18691 10
    endloop
  endfacet
  facet normal -0.707107 -0.707107 0
    outer loop
      vertex -2.18691 -2.05364 10
      vertex -2.18691 -2.05364 0
      vertex -2.05364 -2.18691 10
    endloop
  endfacet
  facet normal -0.661313 -0.75011 0
    outer loop
      vertex -2.05364 -2.18691 0
      vertex -1.91227 -2.31154 0
      vertex -1.91227 -2.31154 10
    endloop
  endfacet
  facet normal -0.661313 -0.75011 0
    outer loop
      vertex -2.05364 -2.18691 10
      vertex -2.05364 -2.18691 0
      vertex -1.91227 -2.31154 10
    endloop
  endfacet
  facet normal -0.612907 -0.790155 0
    outer loop
      vertex -1.91227 -2.31154 0
      vertex -1.76336 -2.42705 0
      vertex -1.76336 -2.42705 10
    endloop
  endfacet
  facet normal -0.612907 -0.790155 0
    outer loop
      vertex -1.91227 -2.31154 10
      vertex -1.91227 -2.31154 0
      vertex -1.76336 -2.42705 10
    endloop
  endfacet
  facet normal -0.562083 -0.827081 0
    outer loop
      vertex -1.76336 -2.42705 0
      vertex -1.60748 -2.53298 0
      vertex -1.60748 -2.53298 10
    endloop
  endfacet
  facet normal -0.562083 -0.827081 0
    outer loop
      vertex -1.76336 -2.42705 10
      vertex -1.76336 -2.42705 0
      vertex -1.60748 -2.53298 10
    endloop
  endfacet
  facet normal -0.509041 -0.860742 0
    outer loop
      vertex -1.60748 -2.53298 0
      vertex -1.44526 -2.62892 0
      vertex -1.44526 -2.62892 10
    endloop
  endfacet
  facet normal -0.509041 -0.860742 0
    outer loop
      vertex -1.60748 -2.53298 10
      vertex -1.60748 -2.53298 0
      vertex -1.44526 -2.62892 10
    endloop
  endfacet
  facet normal -0.45399 -0.891007 0
    outer loop
      vertex -1.44526 -2.62892 0
      vertex -1.27734 -2.71448 0
      vertex -1.27734 -2.71448 10
    endloop
  endfacet
  facet normal -0.45399 -0.891007 0
    outer loop
      vertex -1.44526 -2.62892 10
      vertex -1.44526 -2.62892 0
      vertex -1.27734 -2.71448 10
    endloop
  endfacet
  facet normal -0.397147 -0.917755 0
    outer loop
      vertex -1.27734 -2.71448 0
      vertex -1.10437 -2.78933 0
      vertex -1.10437 -2.78933 10
    endloop
  endfacet
  facet normal -0.397147 -0.917755 0
    outer loop
      vertex -1.27734 -2.71448 10
      vertex -1.27734 -2.71448 0
      vertex -1.10437 -2.78933 10
    endloop
  endfacet
  facet normal -0.338742 -0.940879 0
    outer loop
      vertex -1.10437 -2.78933 0
      vertex -0.927051 -2.85317 0
      vertex -0.927051 -2.85317 10
    endloop
  endfacet
  facet normal -0.338742 -0.940879 0
    outer loop
      vertex -1.10437 -2.78933 10
      vertex -1.10437 -2.78933 0
      vertex -0.927051 -2.85317 10
    endloop
  endfacet
  facet normal -0.278987 -0.960295 0
    outer loop
      vertex -0.927051 -2.85317 0
      vertex -0.74607 -2.90575 0
      vertex -0.74607 -2.90575 10
    endloop
  endfacet
  facet normal -0.278987 -0.960295 0
    outer loop
      vertex -0.927051 -2.85317 10
      vertex -0.927051 -2.85317 0
      vertex -0.74607 -2.90575 10
    endloop
  endfacet
  facet normal -0.218147 -0.975916 0
    outer loop
      vertex -0.74607 -2.90575 0
      vertex -0.562144 -2.94686 0
      vertex -0.562144 -2.94686 10
    endloop
  endfacet
  facet normal -0.218147 -0.975916 0
    outer loop
      vertex -0.74607 -2.90575 10
      vertex -0.74607 -2.90575 0
      vertex -0.562144 -2.94686 10
    endloop
  endfacet
  facet normal -0.156433 -0.987689 0
    outer loop
      vertex -0.562144 -2.94686 0
      vertex -0.376 -2.97634 0
      vertex -0.376 -2.97634 10
    endloop
  endfacet
  facet normal -0.156433 -0.987689 0
    outer loop
      vertex -0.562144 -2.94686 10
      vertex -0.562144 -2.94686 0
      vertex -0.376 -2.97634 10
    endloop
  endfacet
  facet normal -0.094108 -0.995562 0
    outer loop
      vertex -0.376 -2.97634 0
      vertex -0.188372 -2.99408 0
      vertex -0.188372 -2.99408 10
    endloop
  endfacet
  facet normal -0.094108 -0.995562 0
    outer loop
      vertex -0.376 -2.97634 10
      vertex -0.376 -2.97634 0
      vertex -0.188372 -2.99408 10
    endloop
  endfacet
  facet normal -0.0314117 -0.999507 0
    outer loop
      vertex -0.188372 -2.99408 0
      vertex 0 -3 0
      vertex 0 -3 10
    endloop
  endfacet
  facet normal -0.0314117 -0.999507 0
    outer loop
      vertex -0.188372 -2.99408 10
      vertex -0.188372 -2.99408 0
      vertex 0 -3 10
    endloop
  endfacet
  facet normal 0.0314117 -0.999507 0
    outer loop
      vertex 0 -3 0
      vertex 0.188372 -2.99408 0
      vertex 0.188372 -2.99408 10
    endloop
  endfacet
  facet normal 0.0314117 -0.999507 0
    outer loop
      vertex 0 -3 10
      vertex 0 -3 0
      vertex 0.188372 -2.99408 10
    endloop
  endfacet
  facet normal 0.094108 -0.995562 0
    outer loop
      vertex 0.188372 -2.99408 0
      vertex 0.376 -2.97634 0
      vertex 0.376 -2.97634 10
    endloop
  endfacet
  facet normal 0.094108 -0.995562 0
    outer loop
      vertex 0.188372 -2.99408 10
      vertex 0.188372 -2.99408 0
      vertex 0.376 -2.97634 10
    endloop
  endfacet
  facet normal 0.156433 -0.987689 0
    outer loop
      vertex 0.376 -2.97634 0
      vertex 0.562144 -2.94686 0
      vertex 0.562144 -2.94686 10
    endloop
  endfacet
  facet normal 0.156433 -0.987689 0
    outer loop
      vertex 0.376 -2.97634 10
      vertex 0.376 -2.97634 0
      vertex 0.562144 -2.94686 10
    endloop
  endfacet
  facet normal 0.218147 -0.975916 0
    outer loop
      vertex 0.562144 -2.94686 0
      vertex 0.74607 -2.90575 0
      vertex 0.74607 -2.90575 10
    endloop
  endfacet
  facet normal 0.218147 -0.975916 0
    outer loop
      vertex 0.562144 -2.94686 10
      vertex 0.562144 -2.94686 0
      vertex 0.74607 -2.90575 10
    endloop
  endfacet
  facet normal 0.278987 -0.960295 0
    outer loop
      vertex 0.74607 -2.90575 0
      vertex 0.927051 -2.85317 0
      vertex 0.927051 -2.85317 10
    endloop
  endfacet
  facet normal 0.278987 -0.960295 0
    outer loop
      vertex 0.74607 -2.90575 10
      vertex 0.74607 -2.90575 0
      vertex 0.927051 -2.85317 10
    endloop
  endfacet
  facet normal 0.338742 -0.940879 0
    outer loop
      vertex 0.927051 -2.85317 0
      vertex 1.10437 -2.78933 0
      vertex 1.10437 -2.78933 10
    endloop
  endfacet
  facet normal 0.338742 -0.940879 0
    outer loop
      vertex 0.927051 -2.85317 10
      vertex 0.927051 -2.85317 0
      vertex 1.10437 -2.78933 10
    endloop
  endfacet
  facet normal 0.397147 -0.917755 0
    outer loop
      vertex 1.10437 -2.78933 0
      vertex 1.27734 -2.71448 0
      vertex 1.27734 -2.71448 10
    endloop
  endfacet
  facet normal 0.397147 -0.917755 0
    outer loop
      vertex 1.10437 -2.78933 10
      vertex 1.10437 -2.78933 0
      vertex 1.27734 -2.71448 10
    endloop
  endfacet
  facet normal 0.45399 -0.891007 0
    outer loop
      vertex 1.27734 -2.71448 0
      vertex 1.44526 -2.62892 0
      vertex 1.44526 -2.62892 10
    endloop
  endfacet
  facet normal 0.45399 -0.891007 0
    outer loop
      vertex 1.27734 -2.71448 10
      vertex 1.27734 -2.71448 0
      vertex 1.44526 -2.62892 10
    endloop
  endfacet
  facet normal 0.509041 -0.860742 0
    outer loop
      vertex 1.44526 -2.62892 0
      vertex 1.60748 -2.53298 0
      vertex 1.60748 -2.53298 10
    endloop
  endfacet
  facet normal 0.509041 -0.860742 0
    outer loop
      vertex 1.44526 -2.62892 10
      vertex 1.44526 -2.62892 0
      vertex 1.60748 -2.53298 10
    endloop
  endfacet
  facet normal 0.562083 -0.827081 0
    outer loop
      vertex 1.60748 -2.53298 0
      vertex 1.76336 -2.42705 0
      vertex 1.76336 -2.42705 10
    endloop
  endfacet
  facet normal 0.562083 -0.827081 0
    outer loop
      vertex 1.60748 -2.53298 10
      vertex 1.60748 -2.53298 0
      vertex 1.76336 -2.42705 10
    endloop
  endfacet
  facet normal 0.612907 -0.790155 0
    outer loop
      vertex 1.76336 -2.42705 0
      vertex 1.91227 -2.31154 0
      vertex 1.91227 -2.31154 10
    endloop
  endfacet
  facet normal 0.612907 -0.790155 0
    outer loop
      vertex 1.76336 -2.42705 10
      vertex 1.76336 -2.42705 0
      vertex 1.91227 -2.31154 10
    endloop
  endfacet
  facet normal 0.661313 -0.75011 0
    outer loop
      vertex 1.91227 -2.31154 0
      vertex 2.05364 -2.18691 0
      vertex 2.05364 -2.18691 10
    endloop
  endfacet
  facet normal 0.661313 -0.75011 0
    outer loop
      vertex 1.91227 -2.31154 10
      vertex 1.91227 -2.31154 0
      vertex 2.05364 -2.18691 10
    endloop
  endfacet
  facet normal 0.707107 -0.707107 0
    outer loop
      vertex 2.05364 -2.18691 0
      vertex 2.18691 -2.05364 0
      vertex 2.18691 -2.05364 10
    endloop
  endfacet
  facet normal 0.707107 -0.707107 0
    outer loop
      vertex 2.05364 -2.18691 10
      vertex 2.05364 -2.18691 0
      vertex 2.18691 -2.05364 10
    endloop
  endfacet
  facet normal 0.75011 -0.661313 0
    outer loop
      vertex 2.18691 -2.05364 0
      vertex 2.31154 -1.91227 0
      vertex 2.31154 -1.91227 10
    endloop
  endfacet
  facet normal 0.75011 -0.661313 0
    outer loop
      vertex 2.18691 -2.05364 10
      vertex 2.18691 -2.05364 0
      vertex 2.31154 -1.91227 10
    endloop
  endfacet
  facet normal 0.790155 -0.612907 0
    outer loop
      vertex 2.31154 -1.91227 0
      vertex 2.42705 -1.76336 0
      vertex 2.42705 -1.76336 10
    endloop
  endfacet
  facet normal 0.790155 -0.612907 0
    outer loop
      vertex 2.31154 -1.91227 10
      vertex 2.31154 -1.91227 0
      vertex 2.42705 -1.76336 10
    endloop
  endfacet
  facet normal 0.827081 -0.562083 0
    outer loop
      vertex 2.42705 -1.76336 0
      vertex 2.53298 -1.60748 0
      vertex 2.53298 -1.60748 10
    endloop
  endfacet
  facet normal 0.827081 -0.562083 0
    outer loop
      vertex 2.42705 -1.76336 10
      vertex 2.42705 -1.76336 0
      vertex 2.53298 -1.60748 10
    endloop
  endfacet
  facet normal 0.860742 -0.509041 0
    outer loop
      vertex 2.53298 -1.60748 0
      vertex 2.62892 -1.44526 0
      vertex 2.62892 -1.44526 10
    endloop
  endfacet
  facet normal 0.860742 -0.509041 0
    outer loop
      vertex 2.53298 -1.60748 10
      vertex 2.53298 -1.60748 0
      vertex 2.62892 -1.44526 10
    endloop
  endfacet
  facet normal 0.891007 -0.45399 0
    outer loop
      vertex 2.62892 -1.44526 0
      vertex 2.71448 -1.27734 0
      vertex 2.71448 -1.27734 10
    endloop
  endfacet
  facet normal 0.891007 -0.45399 0
    outer loop
      vertex 2.62892 -1.44526 10
      vertex 2.62892 -1.44526 0
      vertex 2.71448 -1.27734 10
    endloop
  endfacet
  facet normal 0.917755 -0.397147 0
    outer loop
      vertex 2.71448 -1.27734 0
      vertex 2.78933 -1.10437 0
      vertex 2.78933 -1.10437 10
    endloop
  endfacet
  facet normal 0.917755 -0.397147 0
    outer loop
      vertex 2.71448 -1.27734 10
      vertex 2.71448 -1.27734 0
      vertex 2.78933 -1.10437 10
    endloop
  endfacet
  facet normal 0.940879 -0.338742 0
    outer loop
      vertex 2.78933 -1.10437 0
      vertex 2.85317 -0.927051 0
      vertex 2.85317 -0.927051 10
    endloop
  endfacet
  facet normal 0.940879 -0.338742 0
    outer loop
      vertex 2.78933 -1.10437 10
      vertex 2.78933 -1.10437 0
      vertex 2.85317 -0.927051 10
    endloop
  endfacet
  facet normal 0.960295 -0.278987 0
    outer loop
      vertex 2.85317 -0.927051 0
      vertex 2.90575 -0.74607 0
      vertex 2.90575 -0.74607 10
    endloop
  endfacet
  facet normal 0.960295 -0.278987 0
    outer loop
      vertex 2.85317 -0.927051 10
      vertex 2.85317 -0.927051 0
      vertex 2.90575 -0.74607 10
    endloop
  endfacet
  facet normal 0.975916 -0.218147 0
    outer loop
      vertex 2.90575 -0.74607 0
      vertex 2.94686 -0.562144 0
      vertex 2.94686 -0.562144 10
    endloop
  endfacet
  facet normal 0.975916 -0.218147 0
    outer loop
      vertex 2.90575 -0.74607 10
      vertex 2.90575 -0.74607 0
      vertex 2.94686 -0.562144 10
    endloop
  endfacet
  facet normal 0.987689 -0.156433 0
    outer loop
      vertex 2.94686 -0.562144 0
      vertex 2.97634 -0.376 0
      vertex 2.97634 -0.376 10
    endloop
  endfacet
  facet normal 0.987689 -0.156433 0
    outer loop
      vertex 2.94686 -0.562144 10
      vertex 2.94686 -0.562144 0
      vertex 2.97634 -0.376 10
    endloop
  endfacet
  facet normal 0.995562 -0.094108 0
    outer loop
      vertex 2.97634 -0.376 0
      vertex 2.99408 -0.188372 0
      vertex 2.99408 -0.188372 10
    endloop
  endfacet
  facet normal 0.995562 -0.094108 0
    outer loop
      vertex 2.97634 -0.376 10
      vertex 2.97634 -0.376 0
      vertex 2.99408 -0.188372 10
    endloop
  endfacet
  facet normal 0.999507 -0.0314117 0
    outer loop
      vertex 2.99408 -0.188372 0
      vertex 3 0 0
      vertex 3 0 10
    endloop
  endfacet
  facet normal 0.999507 -0.0314117 0
    outer loop
      vertex 2.99408 -0.188372 10
      vertex 2.99408 -0.188372 0
      vertex 3 0 10
    endloop
  endfacet
  facet normal 0.987689 0.156433 0
    outer loop
      vertex 2.94686 0.562144 0
      vertex 2.94686 0.562144 10
      vertex 2.97634 0.376 10
    endloop
  endfacet
  facet normal 0.987689 0.156433 0
    outer loop
      vertex 2.97634 0.376 0
      vertex 2.94686 0.562144 0
      vertex 2.97634 0.376 10
    endloop
  endfacet
  facet normal 0.975916 0.218147 0
    outer loop
      vertex 2.90575 0.74607 0
      vertex 2.90575 0.74607 10
      vertex 2.94686 0.562144 10
    endloop
  endfacet
  facet normal 0.975916 0.218147 0
    outer loop
      vertex 2.94686 0.562144 0
      vertex 2.90575 0.74607 0
      vertex 2.94686 0.562144 10
    endloop
  endfacet
  facet normal 0.960295 0.278987 0
    outer loop
      vertex 2.85317 0.927051 0
      vertex 2.85317 0.927051 10
      vertex 2.90575 0.74607 10
    endloop
  endfacet
  facet normal 0.960295 0.278987 0
    outer loop
      vertex 2.90575 0.74607 0
      vertex 2.85317 0.927051 0
      vertex 2.90575 0.74607 10
    endloop
  endfacet
  facet normal 0.940879 0.338742 0
    outer loop
      vertex 2.78933 1.10437 0
      vertex 2.78933 1.10437 10
      vertex 2.85317 0.927051 10
    endloop
  endfacet
  facet normal 0.940879 0.338742 0
    outer loop
      vertex 2.85317 0.927051 0
      vertex 2.78933 1.10437 0
      vertex 2.85317 0.927051 10
    endloop
  endfacet
  facet normal 0.917755 0.397147 0
    outer loop
      vertex 2.71448 1.27734 0
      vertex 2.71448 1.27734 10
      vertex 2.78933 1.10437 10
    endloop
  endfacet
  facet normal 0.917755 0.397147 0
    outer loop
      vertex 2.78933 1.10437 0
      vertex 2.71448 1.27734 0
      vertex 2.78933 1.10437 10
    endloop
  endfacet
  facet normal 0.891007 0.45399 0
    outer loop
      vertex 2.62892 1.44526 0
      vertex 2.62892 1.44526 10
      vertex 2.71448 1.27734 10
    endloop
  endfacet
  facet normal 0.891007 0.45399 0
    outer loop
      vertex 2.71448 1.27734 0
      vertex 2.62892 1.44526 0
      vertex 2.71448 1.27734 10
    endloop
  endfacet
  facet normal 0.860742 0.509041 0
    outer loop
      vertex 2.53298 1.60748 0
      vertex 2.53298 1.60748 10
      vertex 2.62892 1.44526 10
    endloop
  endfacet
  facet normal 0.860742 0.509041 0
    outer loop
      vertex 2.62892 1.44526 0
      vertex 2.53298 1.60748 0
      vertex 2.62892 1.44526 10
    endloop
  endfacet
  facet normal 0.827081 0.562083 0
    outer loop
      vertex 2.42705 1.76336 0
      vertex 2.42705 1.76336 10
      vertex 2.53298 1.60748 10
    endloop
  endfacet
  facet normal 0.827081 0.562083 0
    outer loop
      vertex 2.53298 1.60748 0
      vertex 2.42705 1.76336 0
      vertex 2.53298 1.60748 10
    endloop
  endfacet
  facet normal 0.790155 0.612907 0
    outer loop
      vertex 2.31154 1.91227 0
      vertex 2.31154 1.91227 10
      vertex 2.42705 1.76336 10
    endloop
  endfacet
  facet normal 0.790155 0.612907 0
    outer loop
      vertex 2.42705 1.76336 0
      vertex 2.31154 1.91227 0
      vertex 2.42705 1.76336 10
    endloop
  endfacet
  facet normal 0.75011 0.661313 0
    outer loop
      vertex 2.18691 2.05364 0
      vertex 2.18691 2.05364 10
      vertex 2.31154 1.91227 10
    endloop
  endfacet
  facet normal 0.75011 0.661313 0
    outer loop
      vertex 2.31154 1.91227 0
      vertex 2.18691 2.05364 0
      vertex 2.31154 1.91227 10
    endloop
  endfacet
  facet normal 0.707107 0.707107 0
    outer loop
      vertex 2.05364 2.18691 10
      vertex 2.18691 2.05364 10
      vertex 2.05364 2.18691 0
    endloop
  endfacet
  facet normal 0.707107 0.707107 0
    outer loop
      vertex 2.05364 2.18691 0
      vertex 2.18691 2.05364 10
      vertex 2.18691 2.05364 0
    endloop
  endfacet
  facet normal 0.661313 0.75011 0
    outer loop
      vertex 1.91227 2.31154 10
      vertex 2.05364 2.18691 10
      vertex 1.91227 2.31154 0
    endloop
  endfacet
  facet normal 0.661313 0.75011 0
    outer loop
      vertex 1.91227 2.31154 0
      vertex 2.05364 2.18691 10
      vertex 2.05364 2.18691 0
    endloop
  endfacet
  facet normal 0.612907 0.790155 0
    outer loop
      vertex 1.76336 2.42705 10
      vertex 1.91227 2.31154 10
      vertex 1.76336 2.42705 0
    endloop
  endfacet
  facet normal 0.612907 0.790155 0
    outer loop
      vertex 1.76336 2.42705 0
      vertex 1.91227 2.31154 10
      vertex 1.91227 2.31154 0
    endloop
  endfacet
  facet normal 0.562083 0.827081 0
    outer loop
      vertex 1.60748 2.53298 10
      vertex 1.76336 2.42705 10
      vertex 1.60748 2.53298 0
    endloop
  endfacet
  facet normal 0.562083 0.827081 0
    outer loop
      vertex 1.60748 2.53298 0
      vertex 1.76336 2.42705 10
      vertex 1.76336 2.42705 0
    endloop
  endfacet
  facet normal 0.509041 0.860742 0
    outer loop
      vertex 1.44526 2.62892 10
      vertex 1.60748 2.53298 10
      vertex 1.44526 2.62892 0
    endloop
  endfacet
  facet normal 0.509041 0.860742 0
    outer loop
      vertex 1.44526 2.62892 0
      vertex 1.60748 2.53298 10
      vertex 1.60748 2.53298 0
    endloop
  endfacet
  facet normal 0.45399 0.891007 0
    outer loop
      vertex 1.27734 2.71448 10
      vertex 1.44526 2.62892 10
      vertex 1.27734 2.71448 0
    endloop
  endfacet
  facet normal 0.45399 0.891007 0
    outer loop
      vertex 1.27734 2.71448 0
      vertex 1.44526 2.62892 10
      vertex 1.44526 2.62892 0
    endloop
  endfacet
  facet normal 0.397147 0.917755 0
    outer loop
      vertex 1.10437 2.78933 10
      vertex 1.27734 2.71448 10
      vertex 1.10437 2.78933 0
    endloop
  endfacet
  facet normal 0.397147 0.917755 0
    outer loop
      vertex 1.10437 2.78933 0
      vertex 1.27734 2.71448 10
      vertex 1.27734 2.71448 0
    endloop
  endfacet
  facet normal 0.338742 0.940879 0
    outer loop
      vertex 0.927051 2.85317 10
      vertex 1.10437 2.78933 10
      vertex 0.927051 2.85317 0
    endloop
  endfacet
  facet normal 0.338742 0.940879 0
    outer loop
      vertex 0.927051 2.85317 0
      vertex 1.10437 2.78933 10
      vertex 1.10437 2.78933 0
    endloop
  endfacet
  facet normal 0.278987 0.960295 0
    outer loop
      vertex 0.74607 2.90575 10
      vertex 0.927051 2.85317 10
      vertex 0.74607 2.90575 0
    endloop
  endfacet
  facet normal 0.278987 0.960295 0
    outer loop
      vertex 0.74607 2.90575 0
      vertex 0.927051 2.85317 10
      vertex 0.927051 2.85317 0
    endloop
  endfacet
  facet normal 0.218147 0.975916 0
    outer loop
      vertex 0.562144 2.94686 10
      vertex 0.74607 2.90575 10
      vertex 0.562144 2.94686 0
    endloop
  endfacet
  facet normal 0.218147 0.975916 0
    outer loop
      vertex 0.562144 2.94686 0
      vertex 0.74607 2.90575 10
      vertex 0.74607 2.90575 0
    endloop
  endfacet
  facet normal 0.156433 0.987689 0
    outer loop
      vertex 0.376 2.97634 10
      vertex 0.562144 2.94686 10
      vertex 0.376 2.97634 0
    endloop
  endfacet
  facet normal 0.156433 0.987689 0
    outer loop
      vertex 0.376 2.97634 0
      vertex 0.562144 2.94686 10
      vertex 0.562144 2.94686 0
    endloop
  endfacet
  facet normal 0.094108 0.995562 0
    outer loop
      vertex 0.188372 2.99408 10
      vertex 0.376 2.97634 10
      vertex 0.188372 2.99408 0
    endloop
  endfacet
  facet normal 0.094108 0.995562 0
    outer loop
      vertex 0.188372 2.99408 0
      vertex 0.376 2.97634 10
      vertex 0.376 2.97634 0
    endloop
  endfacet
  facet normal 0.0314117 0.999507 0
    outer loop
      vertex 0 3 10
      vertex 0.188372 2.99408 10
      vertex 0 3 0
    endloop
  endfacet
  facet normal 0.0314117 0.999507 0
    outer loop
      vertex 0 3 0
      vertex 0.188372 2.99408 10
      vertex 0.188372 2.99408 0
    endloop
  endfacet
  facet normal -0.0314117 0.999507 0
    outer loop
      vertex -0.188372 2.99408 10
      vertex 0 3 10
      vertex -0.188372 2.99408 0
    endloop
  endfacet
  facet normal -0.0314117 0.999507 0
    outer loop
      vertex -0.188372 2.99408 0
      vertex 0 3 10
      vertex 0 3 0
    endloop
  endfacet
  facet normal -0.094108 0.995562 0
    outer loop
      vertex -0.376 2.97634 10
      vertex -0.188372 2.99408 10
      vertex -0.376 2.97634 0
    endloop
  endfacet
  facet normal -0.094108 0.995562 0
    outer loop
      vertex -0.376 2.97634 0
      vertex -0.188372 2.99408 10
      vertex -0.188372 2.99408 0
    endloop
  endfacet
  facet normal -0.156433 0.987689 0
    outer loop
      vertex -0.562144 2.94686 10
      vertex -0.376 2.97634 10
      vertex -0.562144 2.94686 0
    endloop
  endfacet
  facet normal -0.156433 0.987689 0
    outer loop
      vertex -0.562144 2.94686 0
      vertex -0.376 2.97634 10
      vertex -0.376 2.97634 0
    endloop
  endfacet
  facet normal -0.218147 0.975916 0
    outer loop
      vertex -0.74607 2.90575 10
      vertex -0.562144 2.94686 10
      vertex -0.74607 2.90575 0
    endloop
  endfacet
  facet normal -0.218147 0.975916 0
    outer loop
      vertex -0.74607 2.90575 0
      vertex -0.562144 2.94686 10
      vertex -0.562144 2.94686 0
    endloop
  endfacet
  facet normal -0.278987 0.960295 0
    outer loop
      vertex -0.927051 2.85317 10
      vertex -0.74607 2.90575 10
      vertex -0.927051 2.85317 0
    endloop
  endfacet
  facet normal -0.278987 0.960295 0
    outer loop
      vertex -0.927051 2.85317 0
      vertex -0.74607 2.90575 10
      vertex -0.74607 2.90575 0
    endloop
  endfacet
  facet normal -0.338742 0.940879 0
    outer loop
      vertex -1.10437 2.78933 10
      vertex -0.927051 2.85317 10
      vertex -1.10437 2.78933 0
    endloop
  endfacet
  facet normal -0.338742 0.940879 0
    outer loop
      vertex -1.10437 2.78933 0
      vertex -0.927051 2.85317 10
      vertex -0.927051 2.85317 0
    endloop
  endfacet
  facet normal -0.397147 0.917755 0
    outer loop
      vertex -1.27734 2.71448 10
      vertex -1.10437 2.78933 10
      vertex -1.27734 2.71448 0
    endloop
  endfacet
  facet normal -0.397147 0.917755 0
    outer loop
      vertex -1.27734 2.71448 0
      vertex -1.10437 2.78933 10
      vertex -1.10437 2.78933 0
    endloop
  endfacet
  facet normal -0.45399 0.891007 0
    outer loop
      vertex -1.44526 2.62892 10
      vertex -1.27734 2.71448 10
      vertex -1.44526 2.62892 0
    endloop
  endfacet
  facet normal -0.45399 0.891007 0
    outer loop
      vertex -1.44526 2.62892 0
      vertex -1.27734 2.71448 10
      vertex -1.27734 2.71448 0
    endloop
  endfacet
  facet normal -0.509041 0.860742 0
    outer loop
      vertex -1.60748 2.53298 10
      vertex -1.44526 2.62892 10
      vertex -1.60748 2.53298 0
    endloop
  endfacet
  facet normal -0.509041 0.860742 0
    outer loop
      vertex -1.60748 2.53298 0
      vertex -1.44526 2.62892 10
      vertex -1.44526 2.62892 0
    endloop
  endfacet
  facet normal -0.562083 0.827081 0
    outer loop
      vertex -1.76336 2.42705 10
      vertex -1.60748 2.53298 10
      vertex -1.76336 2.42705 0
    endloop
  endfacet
  facet normal -0.562083 0.827081 0
    outer loop
      vertex -1.76336 2.42705 0
      vertex -1.60748 2.53298 10
      vertex -1.60748 2.53298 0
    endloop
  endfacet
  facet normal -0.612907 0.790155 0
    outer loop
      vertex -1.91227 2.31154 10
      vertex -1.76336 2.42705 10
      vertex -1.91227 2.31154 0
    endloop
  endfacet
  facet normal -0.612907 0.790155 0
    outer loop
      vertex -1.91227 2.31154 0
      vertex -1.76336 2.42705 10
      vertex -1.76336 2.42705 0
    endloop
  endfacet
  facet normal -0.661313 0.75011 0
    outer loop
      vertex -2.05364 2.18691 10
      vertex -1.91227 2.31154 10
      vertex -2.05364 2.18691 0
    endloop
  endfacet
  facet normal -0.661313 0.75011 0
    outer loop
      vertex -2.05364 2.18691 0
      vertex -1.91227 2.31154 10
      vertex -1.91227 2.31154 0
    endloop
  endfacet
  facet normal -0.707107 0.707107 0
    outer loop
      vertex -2.18691 2.05364 10
      vertex -2.05364 2.18691 10
      vertex -2.18691 2.05364 0
    endloop
  endfacet
  facet normal -0.707107 0.707107 0
    outer loop
      vertex -2.18691 2.05364 0
      vertex -2.05364 2.18691 10
      vertex -2.05364 2.18691 0
    endloop
  endfacet
  facet normal -0.75011 0.661313 0
    outer loop
      vertex -2.31154 1.91227 10
      vertex -2.18691 2.05364 10
      vertex -2.31154 1.91227 0
    endloop
  endfacet
  facet normal -0.75011 0.661313 0
    outer loop
      vertex -2.31154 1.91227 0
      vertex -2.18691 2.05364 10
      vertex -2.18691 2.05364 0
    endloop
  endfacet
  facet normal -0.790155 0.612907 0
    outer loop
      vertex -2.42705 1.76336 10
      vertex -2.31154 1.91227 10
      vertex -2.42705 1.76336 0
    endloop
  endfacet
  facet normal -0.790155 0.612907 0
    outer loop
      vertex -2.42705 1.76336 0
      vertex -2.31154 1.91227 10
      vertex -2.31154 1.91227 0
    endloop
  endfacet
  facet normal -0.827081 0.562083 0
    outer loop
      vertex -2.53298 1.60748 10
      vertex -2.42705 1.76336 10
      vertex -2.53298 1.60748 0
    endloop
  endfacet
  facet normal -0.827081 0.562083 0
    outer loop
      vertex -2.53298 1.60748 0
      vertex -2.42705 1.76336 10
      vertex -2.42705 1.76336 0
    endloop
  endfacet
  facet normal -0.860742 0.509041 0
    outer loop
      vertex -2.62892 1.44526 10
      vertex -2.53298 1.60748 10
      vertex -2.62892 1.44526 0
    endloop
  endfacet
  facet normal -0.860742 0.509041 0
    outer loop
      vertex -2.62892 1.44526 0
      vertex -2.53298 1.60748 10
      vertex -2.53298 1.60748 0
    endloop
  endfacet
  facet normal -0.891007 0.45399 0
    outer loop
      vertex -2.71448 1.27734 10
      vertex -2.62892 1.44526 10
      vertex -2.71448 1.27734 0
    endloop
  endfacet
  facet normal -0.891007 0.45399 0
    outer loop
      vertex -2.71448 1.27734 0
      vertex -2.62892 1.44526 10
      vertex -2.62892 1.44526 0
    endloop
  endfacet
  facet normal -0.917755 0.397147 0
    outer loop
      vertex -2.78933 1.10437 10
      vertex -2.71448 1.27734 10
      vertex -2.78933 1.10437 0
    endloop
  endfacet
  facet normal -0.917755 0.397147 0
    outer loop
      vertex -2.78933 1.10437 0
      vertex -2.71448 1.27734 10
      vertex -2.71448 1.27734 0
    endloop
  endfacet
  facet normal -0.940879 0.338742 0
    outer loop
      vertex -2.85317 0.927051 10
      vertex -2.78933 1.10437 10
      vertex -2.85317 0.927051 0
    endloop
  endfacet
  facet normal -0.940879 0.338742 0
    outer loop
      vertex -2.85317 0.927051 0
      vertex -2.78933 1.10437 10
      vertex -2.78933 1.10437 0
    endloop
  endfacet
  facet normal -0.960295 0.278987 0
    outer loop
      vertex -2.90575 0.74607 10
      vertex -2.85317 0.927051 10
      vertex -2.90575 0.74607 0
    endloop
  endfacet
  facet normal -0.960295 0.278987 0
    outer loop
      vertex -2.90575 0.74607 0
      vertex -2.85317 0.927051 10
      vertex -2.85317 0.927051 0
    endloop
  endfacet
  facet normal -0.975916 0.218147 0
    outer loop
      vertex -2.94686 0.562144 10
      vertex -2.90575 0.74607 10
      vertex -2.94686 0.562144 0
    endloop
  endfacet
  facet normal -0.975916 0.218147 0
    outer loop
      vertex -2.94686 0.562144 0
      vertex -2.90575 0.74607 10
      vertex -2.90575 0.74607 0
    endloop
  endfacet
  facet normal -0.987689 0.156433 0
    outer loop
      vertex -2.97634 0.376 10
      vertex -2.94686 0.562144 10
      vertex -2.97634 0.376 0
    endloop
  endfacet
  facet normal -0.987689 0.156433 0
    outer loop
      vertex -2.97634 0.376 0
      vertex -2.94686 0.562144 10
      vertex -2.94686 0.562144 0
    endloop
  endfacet
  facet normal -0.995562 0.094108 0
    outer loop
      vertex -2.99408 0.188372 10
      vertex -2.97634 0.376 10
      vertex -2.99408 0.188372 0
    endloop
  endfacet
  facet normal -0.995562 0.094108 0
    outer loop
      vertex -2.99408 0.188372 0
      vertex -2.97634 0.376 10
      vertex -2.97634 0.376 0
    endloop
  endfacet
  facet normal 0 0 1
    outer loop
      vertex -3 0 10
      vertex -2.99408 -0.188372 10
      vertex -2.97634 -0.376 10
    endloop
  endfacet
  facet normal 0 0 1
    outer loop
      vertex -2.90575 -0.74607 10
      vertex -3 0 10
      vertex -2.94686 -0.562144 10
    endloop
  endfacet
  facet normal 0 0 1
    outer loop
      vertex -2.94686 -0.562144 10
      vertex -3 0 10
      vertex -2.97634 -0.376 10
    endloop
  endfacet
  facet normal 0 0 1
    outer loop
      vertex -2.85317 -0.927051 10
      vertex -3 0 10
      vertex -2.90575 -0.74607 10
    endloop
  endfacet
  facet normal 0 0 1
    outer loop
      vertex -2.78933 -1.10437 10
      vertex -3 0 10
      vertex -2.85317 -0.927051 10
    endloop
  endfacet
  facet normal 0 0 1
    outer loop
      vertex -2.71448 -1.27734 10
      vertex -3 0 10
      vertex -2.78933 -1.10437 10
    endloop
  endfacet
  facet normal 0 0 1
    outer loop
      vertex -2.62892 -1.44526 10
      vertex -3 0 10
      vertex -2.71448 -1.27734 10
    endloop
  endfacet
  facet normal 0 0 1
    outer loop
      vertex -2.53298 -1.60748 10
      vertex -3 0 10
      vertex -2.62892 -1.44526 10
    endloop
  endfacet
  facet normal 0 0 1
    outer loop
      vertex -2.42705 -1.76336 10
      vertex -3 0 10
      vertex -2.53298 -1.60748 10
    endloop
  endfacet
  facet normal 0 0 1
    outer loop
      vertex -2.31154 -1.91227 10
      vertex -3 0 10
      vertex -2.42705 -1.76336 10
    endloop
  endfacet
  facet normal 0 0 1
    outer loop
      vertex -2.18691 -2.05364 10
      vertex -3 0 10
      vertex -2.31154 -1.91227 10
    endloop
  endfacet
  facet normal 0 0 1
    outer loop
      vertex -2.05364 -2.18691 10
      vertex -3 0 10
      vertex -2.18691 -2.05364 10
    endloop
  endfacet
  facet normal 0 0 1
    outer loop
      vertex -1.91227 -2.31154 10
      vertex -3 0 10
      vertex -2.05364 -2.18691 10
    endloop
  endfacet
  facet normal 0 0 1
    outer loop
      vertex -1.76336 -2.42705 10
      vertex -3 0 10
      vertex -1.91227 -2.31154 10
    endloop
  endfacet
  facet normal 0 0 1
    outer loop
      vertex -1.60748 -2.53298 10
      vertex -3 0 10
      vertex -1.76336 -2.42705 10
    endloop
  endfacet
  facet normal 0 0 1
    outer loop
      vertex -1.44526 -2.62892 10
      vertex -3 0 10
      vertex -1.60748 -2.53298 10
    endloop
  endfacet
  facet normal 0 0 1
    outer loop
      vertex -1.27734 -2.71448 10
      vertex -3 0 10
      vertex -1.44526 -2.62892 10
    endloop
  endfacet
  facet normal 0 0 1
    outer loop
      vertex -1.10437 -2.78933 10
      vertex -3 0 10
      vertex -1.27734 -2.71448 10
    endloop
  endfacet
  facet normal 0 0 1
    outer loop
      vertex -0.927051 -2.85317 10
      vertex -3 0 10
      vertex -1.10437 -2.78933 10
    endloop
  endfacet
  facet normal 0 0 1
    outer loop
      vertex -0.74607 -2.90575 10
      vertex -3 0 10
      vertex -0.927051 -2.85317 10
    endloop
  endfacet
  facet normal 0 0 1
    outer loop
      vertex -0.562144 -2.94686 10
      vertex -3 0 10
      vertex -0.74607 -2.90575 10
    endloop
  endfacet
  facet normal 0 0 1
    outer loop
      vertex -0.376 -2.97634 10
      vertex -3 0 10
      vertex -0.562144 -2.94686 10
    endloop
  endfacet
  facet normal 0 0 1
    outer loop
      vertex -0.188372 -2.99408 10
      vertex -3 0 10
      vertex -0.376 -2.97634 10
    endloop
  endfacet
  facet normal 0 0 1
    outer loop
      vertex 0 -3 10
      vertex -3 0 10
      vertex -0.188372 -2.99408 10
    endloop
  endfacet
  facet normal 0 0 1
    outer loop
      vertex 0.188372 -2.99408 10
      vertex -3 0 10
      vertex 0 -3 10
    endloop
  endfacet
  facet normal 0 0 1
    outer loop
      vertex 0.376 -2.97634 10
      vertex -3 0 10
      vertex 0.188372 -2.99408 10
    endloop
  endfacet
  facet normal 0 0 1
    outer loop
      vertex 0.562144 -2.94686 10
      vertex -3 0 10
      vertex 0.376 -2.97634 10
    endloop
  endfacet
  facet normal 0 0 1
    outer loop
      vertex 0.74607 -2.90575 10
      vertex -3 0 10
      vertex 0.562144 -2.94686 10
    endloop
  endfacet
  facet normal 0 0 1
    outer loop
      vertex 0.927051 -2.85317 10
      vertex -3 0 10
      vertex 0.74607 -2.90575 10
    endloop
  endfacet
  facet normal 0 0 1
    outer loop
      vertex 1.10437 -2.78933 10
      vertex -3 0 10
      vertex 0.927051 -2.85317 10
    endloop
  endfacet
  facet normal 0 0 1
    outer loop
      vertex 1.27734 -2.71448 10
      vertex -3 0 10
      vertex 1.10437 -2.78933 10
    endloop
  endfacet
  facet normal 0 0 1
    outer loop
      vertex 1.44526 -2.62892 10
      vertex -3 0 10
      vertex 1.27734 -2.71448 10
    endloop
  endfacet
  facet normal 0 0 1
    outer loop
      vertex 1.60748 -2.53298 10
      vertex -3 0 10
      vertex 1.44526 -2.62892 10
    endloop
  endfacet
  facet normal 0 0 1
    outer loop
      vertex 1.76336 -2.42705 10
      vertex -3 0 10
      vertex 1.60748 -2.53298 10
    endloop
  endfacet
  facet normal 0 0 1
    outer loop
      vertex 1.91227 -2.31154 10
      vertex -3 0 10
      vertex 1.76336 -2.42705 10
    endloop
  endfacet
  facet normal 0 0 1
    outer loop
      vertex 2.05364 -2.18691 10
      vertex -3 0 10
      vertex 1.91227 -2.31154 10
    endloop
  endfacet
  facet normal 0 0 1
    outer loop
      vertex 2.18691 -2.05364 10
      vertex -3 0 10
      vertex 2.05364 -2.18691 10
    endloop
  endfacet
  facet normal 0 0 1
    outer loop
      vertex 2.31154 -1.91227 10
      vertex -3 0 10
      vertex 2.18691 -2.05364 10
    endloop
  endfacet
  facet normal 0 0 1
    outer loop
      vertex 2.42705 -1.76336 10
      vertex -3 0 10
      vertex 2.31154 -1.91227 10
    endloop
  endfacet
  facet normal 0 0 1
    outer loop
      vertex 2.53298 -1.60748 10
      vertex -3 0 10
      vertex 2.42705 -1.76336 10
    endloop
  endfacet
  facet normal 0 0 1
    outer loop
      vertex 2.62892 -1.44526 10
      vertex -3 0 10
      vertex 2.53298 -1.60748 10
    endloop
  endfacet
  facet normal 0 0 1
    outer loop
      vertex 2.71448 -1.27734 10
      vertex -3 0 10
      vertex 2.62892 -1.44526 10
    endloop
  endfacet
  facet normal 0 0 1
    outer loop
      vertex 2.78933 -1.10437 10
      vertex -3 0 10
      vertex 2.71448 -1.27734 10
    endloop
  endfacet
  facet normal 0 0 1
    outer loop
      vertex 2.85317 -0.927051 10
      vertex -3 0 10
      vertex 2.78933 -1.10437 10
    endloop
  endfacet
  facet normal 0 0 1
    outer loop
      vertex 2.90575 -0.74607 10
      vertex -3 0 10
      vertex 2.85317 -0.927051 10
    endloop
  endfacet
  facet normal 0 0 1
    outer loop
      vertex 2.94686 -0.562144 10
      vertex -3 0 10
      vertex 2.90575 -0.74607 10
    endloop
  endfacet
  facet normal 0 0 1
    outer loop
      vertex 2.97634 -0.376 10
      vertex -3 0 10
      vertex 2.94686 -0.562144 10
    endloop
  endfacet
  facet normal 0 0 1
    outer loop
      vertex 2.99408 -0.188372 10
      vertex -3 0 10
      vertex 2.97634 -0.376 10
    endloop
  endfacet
  facet normal 0 0 1
    outer loop
      vertex 3 0 10
      vertex -3 0 10
      vertex 2.99408 -0.188372 10
    endloop
  endfacet
  facet normal 0 0 1
    outer loop
      vertex 2.99408 0.188372 10
      vertex -3 0 10
      vertex 3 0 10
    endloop
  endfacet
  facet normal 0 0 1
    outer loop
      vertex 2.97634 0.376 10
      vertex -3 0 10
      vertex 2.99408 0.188372 10
    endloop
  endfacet
  facet normal 0 0 1
    outer loop
      vertex 2.94686 0.562144 10
      vertex -3 0 10
      vertex 2.97634 0.376 10
    endloop
  endfacet
  facet normal 0 0 1
    outer loop
      vertex 2.90575 0.74607 10
      vertex -3 0 10
      vertex 2.94686 0.562144 10
    endloop
  endfacet
  facet normal 0 0 1
    outer loop
      vertex 2.85317 0.927051 10
      vertex -3 0 10
      vertex 2.90575 0.74607 10
    endloop
  endfacet
  facet normal 0 0 1
    outer loop
      vertex 2.78933 1.10437 10
      vertex -3 0 10
      vertex 2.85317 0.927051 10
    endloop
  endfacet
  facet normal 0 0 1
    outer loop
      vertex 2.71448 1.27734 10
      vertex -3 0 10
      vertex 2.78933 1.10437 10
    endloop
  endfacet
  facet normal 0 0 1
    outer loop
      vertex 2.62892 1.44526 10
      vertex -3 0 10
      vertex 2.71448 1.27734 10
    endloop
  endfacet
  facet normal 0 0 1
    outer loop
      vertex 2.53298 1.60748 10
      vertex -3 0 10
      vertex 2.62892 1.44526 10
    endloop
  endfacet
  facet normal 0 0 1
    outer loop
      vertex 2.42705 1.76336 10
      vertex -3 0 10
      vertex 2.53298 1.60748 10
    endloop
  endfacet
  facet normal 0 0 1
    outer loop
      vertex 2.31154 1.91227 10
      vertex -3 0 10
      vertex 2.42705 1.76336 10
    endloop
  endfacet
  facet normal 0 0 1
    outer loop
      vertex 2.18691 2.05364 10
      vertex -3 0 10
      vertex 2.31154 1.91227 10
    endloop
  endfacet
  facet normal 0 0 1
    outer loop
      vertex 2.05364 2.18691 10
      vertex -3 0 10
      vertex 2.18691 2.05364 10
    endloop
  endfacet
  facet normal 0 0 1
    outer loop
      vertex 1.91227 2.31154 10
      vertex -3 0 10
      vertex 2.05364 2.18691 10
    endloop
  endfacet
  facet normal 0 0 1
    outer loop
      vertex 1.76336 2.42705 10
      vertex -3 0 10
      vertex 1.91227 2.31154 10
    endloop
  endfacet
  facet normal 0 0 1
    outer loop
      vertex 1.60748 2.53298 10
      vertex -3 0 10
      vertex 1.76336 2.42705 10
    endloop
  endfacet
  facet normal 0 0 1
    outer loop
      vertex 1.44526 2.62892 10
      vertex -3 0 10
      vertex 1.60748 2.53298 10
    endloop
  endfacet
  facet normal 0 0 1
    outer loop
      vertex 1.27734 2.71448 10
      vertex -3 0 10
      vertex 1.44526 2.62892 10
    endloop
  endfacet
  facet normal 0 0 1
    outer loop
      vertex 1.10437 2.78933 10
      vertex -3 0 10
      vertex 1.27734 2.71448 10
    endloop
  endfacet
  facet normal 0 0 1
    outer loop
      vertex 0.927051 2.85317 10
      vertex -3 0 10
      vertex 1.10437 2.78933 10
    endloop
  endfacet
  facet normal 0 0 1
    outer loop
      vertex 0.74607 2.90575 10
      vertex -3 0 10
      vertex 0.927051 2.85317 10
    endloop
  endfacet
  facet normal 0 0 1
    outer loop
      vertex 0.562144 2.94686 10
      vertex -3 0 10
      vertex 0.74607 2.90575 10
    endloop
  endfacet
  facet normal 0 0 1
    outer loop
      vertex 0.376 2.97634 10
      vertex -3 0 10
      vertex 0.562144 2.94686 10
    endloop
  endfacet
  facet normal 0 0 1
    outer loop
      vertex 0.188372 2.99408 10
      vertex -3 0 10
      vertex 0.376 2.97634 10
    endloop
  endfacet
  facet normal 0 0 1
    outer loop
      vertex 0 3 10
      vertex -3 0 10
      vertex 0.188372 2.99408 10
    endloop
  endfacet
  facet normal 0 0 1
    outer loop
      vertex -0.188372 2.99408 10
      vertex -3 0 10
      vertex 0 3 10
    endloop
  endfacet
  facet normal 0 0 1
    outer loop
      vertex -0.376 2.97634 10
      vertex -3 0 10
      vertex -0.188372 2.99408 10
    endloop
  endfacet
  facet normal 0 0 1
    outer loop
      vertex -0.562144 2.94686 10
      vertex -3 0 10
      vertex -0.376 2.97634 10
    endloop
  endfacet
  facet normal 0 0 1
    outer loop
      vertex -0.74607 2.90575 10
      vertex -3 0 10
      vertex -0.562144 2.94686 10
    endloop
  endfacet
  facet normal 0 0 1
    outer loop
      vertex -0.927051 2.85317 10
      vertex -3 0 10
      vertex -0.74607 2.90575 10
    endloop
  endfacet
  facet normal 0 0 1
    outer loop
      vertex -1.10437 2.78933 10
      vertex -3 0 10
      vertex -0.927051 2.85317 10
    endloop
  endfacet
  facet normal 0 0 1
    outer loop
      vertex -1.27734 2.71448 10
      vertex -3 0 10
      vertex -1.10437 2.78933 10
    endloop
  endfacet
  facet normal 0 0 1
    outer loop
      vertex -1.44526 2.62892 10
      vertex -3 0 10
      vertex -1.27734 2.71448 10
    endloop
  endfacet
  facet normal 0 0 1
    outer loop
      vertex -1.60748 2.53298 10
      vertex -3 0 10
      vertex -1.44526 2.62892 10
    endloop
  endfacet
  facet normal 0 0 1
    outer loop
      vertex -1.76336 2.42705 10
      vertex -3 0 10
      vertex -1.60748 2.53298 10
    endloop
  endfacet
  facet normal 0 0 1
    outer loop
      vertex -1.91227 2.31154 10
      vertex -3 0 10
      vertex -1.76336 2.42705 10
    endloop
  endfacet
  facet normal 0 0 1
    outer loop
      vertex -2.05364 2.18691 10
      vertex -3 0 10
      vertex -1.91227 2.31154 10
    endloop
  endfacet
  facet normal 0 0 1
    outer loop
      vertex -2.18691 2.05364 10
      vertex -3 0 10
      vertex -2.05364 2.18691 10
    endloop
  endfacet
  facet normal 0 0 1
    outer loop
      vertex -2.31154 1.91227 10
      vertex -3 0 10
      vertex -2.18691 2.05364 10
    endloop
  endfacet
  facet normal 0 0 1
    outer loop
      vertex -2.42705 1.76336 10
      vertex -3 0 10
      vertex -2.31154 1.91227 10
    endloop
  endfacet
  facet normal 0 0 1
    outer loop
      vertex -2.53298 1.60748 10
      vertex -3 0 10
      vertex -2.42705 1.76336 10
    endloop
  endfacet
  facet normal 0 0 1
    outer loop
      vertex -2.62892 1.44526 10
      vertex -3 0 10
      vertex -2.53298 1.60748 10
    endloop
  endfacet
  facet normal 0 0 1
    outer loop
      vertex -2.71448 1.27734 10
      vertex -3 0 10
      vertex -2.62892 1.44526 10
    endloop
  endfacet
  facet normal 0 0 1
    outer loop
      vertex -2.78933 1.10437 10
      vertex -3 0 10
      vertex -2.71448 1.27734 10
    endloop
  endfacet
  facet normal 0 0 1
    outer loop
      vertex -2.85317 0.927051 10
      vertex -3 0 10
      vertex -2.78933 1.10437 10
    endloop
  endfacet
  facet normal 0 0 1
    outer loop
      vertex -2.90575 0.74607 10
      vertex -3 0 10
      vertex -2.85317 0.927051 10
    endloop
  endfacet
  facet normal 0 0 1
    outer loop
      vertex -2.94686 0.562144 10
      vertex -3 0 10
      vertex -2.90575 0.74607 10
    endloop
  endfacet
  facet normal 0 0 1
    outer loop
      vertex -2.97634 0.376 10
      vertex -3 0 10
      vertex -2.94686 0.562144 10
    endloop
  endfacet
  facet normal 0 0 1
    outer loop
      vertex -2.99408 0.188372 10
      vertex -3 0 10
      vertex -2.97634 0.376 10
    endloop
  endfacet
endsolid OpenSCAD_Model
